<?xml version="1.0" encoding="utf-8"?>
<!-- Generator: Adobe Illustrator 27.0.0, SVG Export Plug-In . SVG Version: 6.00 Build 0)  -->
<svg version="1.1" id="Layer_1" xmlns="http://www.w3.org/2000/svg" xmlns:xlink="http://www.w3.org/1999/xlink" x="0px" y="0px"
	 viewBox="0 0 2000 2000" style="enable-background:new 0 0 2000 2000;" xml:space="preserve">
<style type="text/css">
	.st0{fill:#FFFFFF;stroke:#231F20;stroke-miterlimit:10;}
	.st1{clip-path:url(#SVGID_00000029025257602774235630000003892721003453747360_);}
	.st2{clip-path:url(#SVGID_00000038408119869508807860000010568544965517639045_);}
	.st3{clip-path:url(#SVGID_00000083802572828015890700000000116518052267672968_);}
	.st4{clip-path:url(#SVGID_00000022552798222020519300000012744983124953177256_);}
	.st5{clip-path:url(#SVGID_00000027563554199770845340000006461933762462046379_);}
	.st6{clip-path:url(#SVGID_00000178914451628047378230000011195036585683060648_);}
	.st7{fill:url(#SVGID_00000026883464178418119680000010966641129257246623_);}
	.st8{clip-path:url(#SVGID_00000124858455922473666500000007567277325543403162_);}
	.st9{clip-path:url(#SVGID_00000170250987864822944700000006901460756976930994_);}
	.st10{fill:url(#SVGID_00000108997029528286244100000002309863868288477850_);}
	.st11{opacity:0.84;}
	.st12{clip-path:url(#SVGID_00000043428013957351787180000011054993729063699590_);}
	.st13{clip-path:url(#SVGID_00000178169462602257315220000007565074292882928030_);}
	.st14{clip-path:url(#SVGID_00000067201233735293870830000017034889679160852385_);}
	.st15{fill:#FFFFFF;stroke:#231F20;stroke-width:7;stroke-miterlimit:10;}
	.st16{clip-path:url(#SVGID_00000070084180657834924080000014533074384644395139_);}
	.st17{clip-path:url(#SVGID_00000132809830209514944560000015443429475802349703_);}
	.st18{fill:#FFFFFF;stroke:#231F20;stroke-width:4;stroke-miterlimit:10;}
	.st19{font-family:'Popo_Font';}
	.st20{font-size:584.4293px;}
	.st21{font-size:584.9997px;}
</style>
<g>
	<g>
		<g>
			<g transform="translate(172.609545, 332.055976)">
				<g>
					<path class="st0" d="M62.5,114.6h57.3c20.7,0,38.8-12.7,38.8-39.7s-18-39.7-38.8-39.7H62.5V114.6z M80.4,99.6V50.4h32
						c17.9,0,28.3,4.1,28.3,24.6c0,20.5-10.4,24.6-28.3,24.6H80.4z"/>
				</g>
			</g>
		</g>
		<g>
			<g transform="translate(320.16514, 332.055976)">
				<g>
					<path class="st0" d="M111.7,114.6h17.9V35.3h-17.9V114.6z"/>
				</g>
			</g>
		</g>
		<g>
			<g transform="translate(409.923364, 332.055976)">
				<g>
					<path class="st0" d="M183.6,114.6H207l43-79.3h-20.3l-34.5,64.6l-34.4-64.6h-20.3L183.6,114.6z"/>
				</g>
			</g>
		</g>
		<g>
			<g transform="translate(566.658568, 332.055976)">
				<g>
					<path class="st0" d="M193.9,114.6h83.9v-14.4h-66V81.8h66V68.2h-66V49.7h66V35.3h-83.9V114.6z"/>
				</g>
			</g>
		</g>
		<g>
			<g transform="translate(705.034606, 332.055976)">
				<g>
					<path class="st0" d="M240,114.6h17.9V92.8H295l13.4,21.9h21.1l-14.8-24c11.2-3.9,18.1-13.3,18.1-26.6
						c0-17.7-12.3-28.7-30.4-28.7H240V114.6z M257.9,77.7V50.4h38.8c7,0,18.1,0,18.1,13.6c0,13.7-11.1,13.7-18.1,13.7H257.9z"/>
				</g>
			</g>
		</g>
		<g>
			<g transform="translate(850.040299, 332.055976)">
				<g>
					<path class="st0" d="M339.6,115.8c28.3,0,49-3.9,49-24.9c0-19.9-19.4-21.5-50.7-23.3c-24.6-1.5-29.9-3.1-29.9-10
						c0-6.6,5.3-9,27-9c23,0,32.3,2.6,32.3,12.6h17.9c0-19.5-18.2-27-47.9-27c-29.2,0-47.1,5-47.1,22.4c0,17.7,13.7,23,47.8,24.7
						c27.7,1.5,32.8,2.6,32.8,10.2c0,7-7.6,9.9-29.9,9.9c-27.8,0-35.6-4.3-35.6-13.9h-17.9C287.2,110.2,307,115.8,339.6,115.8z"/>
				</g>
			</g>
		</g>
		<g>
			<g transform="translate(1000.655796, 332.055976)">
				<g>
					<path class="st0" d="M338.5,114.6h17.9V35.3h-17.9V114.6z"/>
				</g>
			</g>
		</g>
		<g>
			<g transform="translate(1090.413997, 332.055976)">
				<g>
					<path class="st0" d="M407.1,114.6H425V50.4h39.8V35.3h-97.5v15.1h39.8V114.6z"/>
				</g>
			</g>
		</g>
		<g>
			<g transform="translate(1238.139542, 332.055976)">
				<g>
					<path class="st0" d="M462.7,114.6h17.9V88.6l46.1-53.3h-22l-33.1,38.1l-33-38.1h-22.1l46.1,53.3V114.6z"/>
				</g>
			</g>
		</g>
	</g>
	<g>
		<g>
			<g transform="translate(172.727465, 1221.527563)">
				<g>
					<path class="st0" d="M63.1,411.1H81v-79.3H63.1V411.1z"/>
				</g>
			</g>
		</g>
		<g>
			<g transform="translate(262.487475, 1221.527563)">
				<g>
					<path class="st0" d="M93.1,411.1H111v-61l59.6,61h24.7v-79.3h-17.9v61l-59.5-61H93.1V411.1z"/>
				</g>
			</g>
		</g>
		<g>
			<g transform="translate(415.484627, 1221.527563)">
				<g>
					<path class="st0" d="M192.8,412.3c31.6,0,47.3-12.5,49.5-34.7h-18.1c-2,14.2-13.3,19.6-31.4,19.6c-21.4,0-32-7.5-32-25.8
						c0-18.2,10.4-25.6,32-25.6c18.2,0,29.3,5.3,31.4,19.4h18c-2.2-22.1-17.8-34.5-49.4-34.5c-34.9,0-49.9,14.8-49.9,40.7
						C142.9,397.3,157.9,412.3,192.8,412.3z"/>
				</g>
			</g>
		</g>
		<g>
			<g transform="translate(564.656951, 1221.527563)">
				<g>
					<path class="st0" d="M193.8,411.1h81.6V396h-63.7v-64.3h-17.9V411.1z"/>
				</g>
			</g>
		</g>
		<g>
			<g transform="translate(701.334824, 1221.527563)">
				<g>
					<path class="st0" d="M289.2,412.3c34.8,0,49.9-13.4,49.9-40.9v-39.6h-17.9v39.6c0,11.7-3.1,25.8-32,25.8
						c-28.9,0-32-14.1-32-25.8v-39.6h-17.9v39.6C239.3,399,254.3,412.3,289.2,412.3z"/>
				</g>
			</g>
		</g>
		<g>
			<g transform="translate(852.462054, 1221.527563)">
				<g>
					<path class="st0" d="M340.9,412.3c28.3,0,49-3.9,49-24.9c0-19.9-19.4-21.5-50.7-23.3c-24.6-1.5-29.9-3.1-29.9-10
						c0-6.6,5.3-9,27-9c23,0,32.3,2.6,32.3,12.6h17.9c0-19.5-18.2-27-47.9-27c-29.2,0-47.1,5-47.1,22.4c0,17.7,13.7,23,47.8,24.7
						c27.7,1.5,32.8,2.6,32.8,10.2c0,7-7.6,9.9-29.9,9.9c-27.8,0-35.6-4.3-35.6-13.9h-17.9C288.6,406.7,308.4,412.3,340.9,412.3z"/>
				</g>
			</g>
		</g>
		<g>
			<g transform="translate(1003.079291, 1221.527563)">
				<g>
					<path class="st0" d="M339.9,411.1h17.9v-79.3h-17.9V411.1z"/>
				</g>
			</g>
		</g>
		<g>
			<g transform="translate(1092.839324, 1221.527563)">
				<g>
					<path class="st0" d="M418.6,412.3c34.8,0,49.9-15.1,49.9-40.9c0-25.7-15.1-40.7-49.9-40.7c-34.9,0-49.9,14.8-49.9,40.7
						C368.7,397.3,383.7,412.3,418.6,412.3z M418.6,397.2c-22.3,0-32-7.5-32-25.8c0-18.2,9.5-25.6,32-25.6c22.4,0,32,7.5,32,25.6
						C450.5,389.6,440.9,397.2,418.6,397.2z"/>
				</g>
			</g>
		</g>
		<g>
			<g transform="translate(1242.266648, 1221.527563)">
				<g>
					<path class="st0" d="M419.6,411.1h17.9v-61l59.6,61h24.7v-79.3H504v61l-59.5-61h-24.8V411.1z"/>
				</g>
			</g>
		</g>
	</g>
	<g>
		<g>
			<g>
				<g>
					<defs>
						<rect id="SVGID_1_" x="797.2" y="616" width="593.8" height="596"/>
					</defs>
					<clipPath id="SVGID_00000005949872694962756230000010074670422599240066_">
						<use xlink:href="#SVGID_1_"  style="overflow:visible;"/>
					</clipPath>
					<g style="clip-path:url(#SVGID_00000005949872694962756230000010074670422599240066_);">
						<g>
							<defs>
								<path id="SVGID_00000056385663023148218540000010630796990896520097_" d="M1194.3,616.4c-203.1,0-190.4,88.1-190.4,88.1
									l0.2,91.2H1198v27.4H927.2c0,0-130-14.7-130,190.2c0,204.9,113.4,197.7,113.4,197.7h67.7v-95.1c0,0-3.7-113.4,111.6-113.4
									c115.3,0,192.2,0,192.2,0s108,1.8,108-104.4s0-175.5,0-175.5S1406.6,616.4,1194.3,616.4z M1087.5,677.7
									c19.3,0,34.9,15.6,34.9,34.9c0,19.3-15.6,34.9-34.9,34.9c-19.3,0-34.9-15.6-34.9-34.9
									C1052.6,693.3,1068.2,677.7,1087.5,677.7z"/>
							</defs>
							<clipPath id="SVGID_00000134213015363199192890000003170985104801479304_">
								<use xlink:href="#SVGID_00000056385663023148218540000010630796990896520097_"  style="overflow:visible;"/>
							</clipPath>
							<g style="clip-path:url(#SVGID_00000134213015363199192890000003170985104801479304_);">
								<path d="M797.2,616.4v601.8h609.3V616.4H797.2z"/>
							</g>
						</g>
					</g>
				</g>
				<g>
					<defs>
						<rect id="SVGID_00000113326736654504761910000015439324466055552667_" x="1003" y="817.4" width="594.2" height="596"/>
					</defs>
					<clipPath id="SVGID_00000056400972078151188940000015717009350195070867_">
						<use xlink:href="#SVGID_00000113326736654504761910000015439324466055552667_"  style="overflow:visible;"/>
					</clipPath>
					<g style="clip-path:url(#SVGID_00000056400972078151188940000015717009350195070867_);">
						<g>
							<defs>
								<path id="SVGID_00000096052073892014874330000004865351863695979651_" d="M1200.1,1412.2c203.1,0,190.4-88.1,190.4-88.1
									l-0.2-91.2h-193.8v-27.4h270.8c0,0,130,14.7,130-190.2c0-204.9-113.4-197.7-113.4-197.7h-67.7v95.1
									c0,0,3.7,113.4-111.6,113.4c-115.3,0-192.2,0-192.2,0s-108-1.7-108,104.4c0,106.1,0,175.5,0,175.5
									S987.9,1412.2,1200.1,1412.2z M1307,1350.8c-19.3,0-34.9-15.6-34.9-34.9c0-19.3,15.6-34.9,34.9-34.9
									c19.3,0,34.9,15.6,34.9,34.9C1341.8,1335.2,1326.2,1350.8,1307,1350.8z"/>
							</defs>
							<clipPath id="SVGID_00000137115760339254666980000010419736000297825430_">
								<use xlink:href="#SVGID_00000096052073892014874330000004865351863695979651_"  style="overflow:visible;"/>
							</clipPath>
							<g style="clip-path:url(#SVGID_00000137115760339254666980000010419736000297825430_);">
								<path d="M987.9,810.4v601.8h609.4V810.4H987.9z"/>
							</g>
						</g>
					</g>
				</g>
			</g>
			<g>
				<g>
					<defs>
						<rect id="SVGID_00000037691215588011897600000018355754866878605472_" x="795.4" y="606.7" width="593.8" height="596"/>
					</defs>
					<clipPath id="SVGID_00000105399345410255383850000008446820416592430004_">
						<use xlink:href="#SVGID_00000037691215588011897600000018355754866878605472_"  style="overflow:visible;"/>
					</clipPath>
					<g style="clip-path:url(#SVGID_00000105399345410255383850000008446820416592430004_);">
						<g>
							<defs>
								<path id="SVGID_00000061456516026739962780000002269405798387348386_" d="M1192.5,607c-203.1,0-190.4,88.1-190.4,88.1
									l0.2,91.2h193.8v27.4H925.4c0,0-130-14.7-130,190.2c0,204.9,113.4,197.7,113.4,197.7h67.7v-95.1c0,0-3.7-113.4,111.6-113.4
									c115.3,0,192.2,0,192.2,0s108,1.8,108-104.4s0-175.5,0-175.5S1404.8,607,1192.5,607z M1085.7,668.4
									c19.3,0,34.9,15.6,34.9,34.9c0,19.3-15.6,34.9-34.9,34.9c-19.3,0-34.9-15.6-34.9-34.9C1050.8,684,1066.4,668.4,1085.7,668.4
									z"/>
							</defs>
							<clipPath id="SVGID_00000030456145699564206720000002299040133950480560_">
								<use xlink:href="#SVGID_00000061456516026739962780000002269405798387348386_"  style="overflow:visible;"/>
							</clipPath>
							<g style="clip-path:url(#SVGID_00000030456145699564206720000002299040133950480560_);">
								
									<linearGradient id="SVGID_00000085225157902311263260000016945632453866634895_" gradientUnits="userSpaceOnUse" x1="587.0527" y1="1334.8285" x2="670.4974" y2="1251.1041" gradientTransform="matrix(7.245 0 0 -7.245 -3455.3689 10275.4912)">
									<stop  offset="0" style="stop-color:#397EB8"/>
									<stop  offset="0.125" style="stop-color:#397EB8"/>
									<stop  offset="0.1328" style="stop-color:#387FB9"/>
									<stop  offset="0.1406" style="stop-color:#387FBA"/>
									<stop  offset="0.1484" style="stop-color:#3980BA"/>
									<stop  offset="0.1562" style="stop-color:#3780BC"/>
									<stop  offset="0.1641" style="stop-color:#3780BC"/>
									<stop  offset="0.1719" style="stop-color:#3881BD"/>
									<stop  offset="0.1797" style="stop-color:#3682BE"/>
									<stop  offset="0.1875" style="stop-color:#3882BE"/>
									<stop  offset="0.1953" style="stop-color:#3983BF"/>
									<stop  offset="0.2031" style="stop-color:#3784C0"/>
									<stop  offset="0.2109" style="stop-color:#3784C0"/>
									<stop  offset="0.2188" style="stop-color:#3885C2"/>
									<stop  offset="0.2266" style="stop-color:#3686C2"/>
									<stop  offset="0.2344" style="stop-color:#3886C3"/>
									<stop  offset="0.2422" style="stop-color:#3787C4"/>
									<stop  offset="0.25" style="stop-color:#3788C5"/>
									<stop  offset="0.2578" style="stop-color:#3688C6"/>
									<stop  offset="0.2656" style="stop-color:#3689C6"/>
									<stop  offset="0.2734" style="stop-color:#378AC7"/>
									<stop  offset="0.2812" style="stop-color:#388AC9"/>
									<stop  offset="0.2891" style="stop-color:#388CCA"/>
									<stop  offset="0.2969" style="stop-color:#378CCB"/>
									<stop  offset="0.3047" style="stop-color:#378CCB"/>
									<stop  offset="0.3125" style="stop-color:#388DCC"/>
									<stop  offset="0.3203" style="stop-color:#388FCD"/>
									<stop  offset="0.3281" style="stop-color:#398ECC"/>
									<stop  offset="0.3359" style="stop-color:#398FCD"/>
									<stop  offset="0.3438" style="stop-color:#3B90CE"/>
									<stop  offset="0.3516" style="stop-color:#3B90CE"/>
									<stop  offset="0.3594" style="stop-color:#3B91CF"/>
									<stop  offset="0.3672" style="stop-color:#3A92CF"/>
									<stop  offset="0.375" style="stop-color:#3A92CF"/>
									<stop  offset="0.3828" style="stop-color:#3C92CF"/>
									<stop  offset="0.3906" style="stop-color:#3C94D0"/>
									<stop  offset="0.3984" style="stop-color:#3C94D0"/>
									<stop  offset="0.4062" style="stop-color:#3D94D1"/>
									<stop  offset="0.4141" style="stop-color:#3C95D2"/>
									<stop  offset="0.4219" style="stop-color:#3E96D2"/>
									<stop  offset="0.4297" style="stop-color:#3D96D2"/>
									<stop  offset="0.4375" style="stop-color:#3E97D3"/>
									<stop  offset="0.4453" style="stop-color:#3E97D3"/>
									<stop  offset="0.4531" style="stop-color:#3D98D3"/>
									<stop  offset="0.4609" style="stop-color:#3E99D4"/>
									<stop  offset="0.4688" style="stop-color:#3E99D4"/>
									<stop  offset="0.4766" style="stop-color:#3F9AD5"/>
									<stop  offset="0.4844" style="stop-color:#409BD5"/>
									<stop  offset="0.4922" style="stop-color:#409BD5"/>
									<stop  offset="0.4977" style="stop-color:#419CD6"/>
									<stop  offset="0.5" style="stop-color:#419CD6"/>
									<stop  offset="0.5023" style="stop-color:#409DD6"/>
									<stop  offset="0.5078" style="stop-color:#409DD6"/>
									<stop  offset="0.5156" style="stop-color:#409DD6"/>
									<stop  offset="0.5234" style="stop-color:#419DD7"/>
									<stop  offset="0.5312" style="stop-color:#429ED7"/>
									<stop  offset="0.5391" style="stop-color:#429ED7"/>
									<stop  offset="0.5469" style="stop-color:#439FD8"/>
									<stop  offset="0.5547" style="stop-color:#44A0D9"/>
									<stop  offset="0.5625" style="stop-color:#44A0D8"/>
									<stop  offset="0.5703" style="stop-color:#45A1D9"/>
									<stop  offset="0.5781" style="stop-color:#45A2DA"/>
									<stop  offset="0.5859" style="stop-color:#46A2DA"/>
									<stop  offset="0.5938" style="stop-color:#47A3DA"/>
									<stop  offset="0.6016" style="stop-color:#48A3DB"/>
									<stop  offset="0.6094" style="stop-color:#49A5DB"/>
									<stop  offset="0.6172" style="stop-color:#49A5DB"/>
									<stop  offset="0.625" style="stop-color:#49A5DC"/>
									<stop  offset="0.6328" style="stop-color:#49A7DD"/>
									<stop  offset="0.6406" style="stop-color:#4BA6DC"/>
									<stop  offset="0.6484" style="stop-color:#4CA7DD"/>
									<stop  offset="0.6562" style="stop-color:#4CA8DD"/>
									<stop  offset="0.6641" style="stop-color:#4EA8DD"/>
									<stop  offset="0.6719" style="stop-color:#4DA8DE"/>
									<stop  offset="0.6797" style="stop-color:#4EA9DE"/>
									<stop  offset="0.6875" style="stop-color:#4EA9DE"/>
									<stop  offset="0.6953" style="stop-color:#4FAADF"/>
									<stop  offset="0.7031" style="stop-color:#4FAADF"/>
									<stop  offset="0.7109" style="stop-color:#50ABDF"/>
									<stop  offset="0.7188" style="stop-color:#50ABE0"/>
									<stop  offset="0.7266" style="stop-color:#50ADE1"/>
									<stop  offset="0.7344" style="stop-color:#52ACE0"/>
									<stop  offset="0.7422" style="stop-color:#53AEE1"/>
									<stop  offset="0.75" style="stop-color:#54AEE2"/>
									<stop  offset="0.7578" style="stop-color:#56AEE1"/>
									<stop  offset="0.7656" style="stop-color:#57AFE2"/>
									<stop  offset="0.7734" style="stop-color:#56B0E2"/>
									<stop  offset="0.7812" style="stop-color:#58B0E2"/>
									<stop  offset="0.8125" style="stop-color:#58B0E2"/>
									<stop  offset="0.875" style="stop-color:#58B0E2"/>
									<stop  offset="1" style="stop-color:#58B0E2"/>
								</linearGradient>
								<path style="fill:url(#SVGID_00000085225157902311263260000016945632453866634895_);" d="M795.4,607v601.8h609.3V607H795.4z
									"/>
							</g>
						</g>
					</g>
				</g>
				<g>
					<defs>
						<rect id="SVGID_00000163773386735714810710000009566669594156171199_" x="1001.2" y="808" width="594.2" height="596"/>
					</defs>
					<clipPath id="SVGID_00000015335129929210059120000011159281532275279032_">
						<use xlink:href="#SVGID_00000163773386735714810710000009566669594156171199_"  style="overflow:visible;"/>
					</clipPath>
					<g style="clip-path:url(#SVGID_00000015335129929210059120000011159281532275279032_);">
						<g>
							<defs>
								<path id="SVGID_00000103982609562183943970000008233661230257914807_" d="M1198.3,1402.9c203.1,0,190.4-88.1,190.4-88.1
									l-0.2-91.2h-193.8v-27.4h270.8c0,0,130,14.7,130-190.2c0-204.9-113.4-197.7-113.4-197.7h-67.7v95.1
									c0,0,3.7,113.4-111.6,113.4c-115.3,0-192.2,0-192.2,0s-108-1.7-108,104.4c0,106.1,0,175.5,0,175.5
									S986.1,1402.9,1198.3,1402.9z M1305.2,1341.5c-19.3,0-34.9-15.6-34.9-34.9c0-19.3,15.6-34.9,34.9-34.9
									c19.3,0,34.9,15.6,34.9,34.9C1340,1325.9,1324.5,1341.5,1305.2,1341.5z"/>
							</defs>
							<clipPath id="SVGID_00000127739040516515859380000001154963074630819480_">
								<use xlink:href="#SVGID_00000103982609562183943970000008233661230257914807_"  style="overflow:visible;"/>
							</clipPath>
							<g style="clip-path:url(#SVGID_00000127739040516515859380000001154963074630819480_);">
								
									<linearGradient id="SVGID_00000072238945286382309420000013503800955710951330_" gradientUnits="userSpaceOnUse" x1="612.4142" y1="1307.0699" x2="697.7632" y2="1225.3014" gradientTransform="matrix(7.245 0 0 -7.245 -3455.3689 10275.4912)">
									<stop  offset="0" style="stop-color:#F6EAB1"/>
									<stop  offset="0.125" style="stop-color:#F6EAB1"/>
									<stop  offset="0.1875" style="stop-color:#F6EAB1"/>
									<stop  offset="0.2031" style="stop-color:#F6EAB1"/>
									<stop  offset="0.2109" style="stop-color:#F6EAB1"/>
									<stop  offset="0.2148" style="stop-color:#F6EAB0"/>
									<stop  offset="0.2188" style="stop-color:#F6EAB0"/>
									<stop  offset="0.2227" style="stop-color:#F5E9AF"/>
									<stop  offset="0.2266" style="stop-color:#F6E9AE"/>
									<stop  offset="0.2305" style="stop-color:#F6E9AE"/>
									<stop  offset="0.2344" style="stop-color:#F7E9AD"/>
									<stop  offset="0.2383" style="stop-color:#F7E9AC"/>
									<stop  offset="0.2422" style="stop-color:#F6E7AB"/>
									<stop  offset="0.2461" style="stop-color:#F6E7AB"/>
									<stop  offset="0.25" style="stop-color:#F7E8AA"/>
									<stop  offset="0.2539" style="stop-color:#F7E7A9"/>
									<stop  offset="0.2578" style="stop-color:#F7E7A8"/>
									<stop  offset="0.2617" style="stop-color:#F7E7A8"/>
									<stop  offset="0.2656" style="stop-color:#F7E6A8"/>
									<stop  offset="0.2695" style="stop-color:#F7E6A7"/>
									<stop  offset="0.2734" style="stop-color:#F7E6A7"/>
									<stop  offset="0.2773" style="stop-color:#F6E5A6"/>
									<stop  offset="0.2812" style="stop-color:#F7E5A4"/>
									<stop  offset="0.2852" style="stop-color:#F7E5A3"/>
									<stop  offset="0.2891" style="stop-color:#F7E5A3"/>
									<stop  offset="0.293" style="stop-color:#F7E4A2"/>
									<stop  offset="0.2969" style="stop-color:#F7E4A1"/>
									<stop  offset="0.3008" style="stop-color:#F7E4A0"/>
									<stop  offset="0.3047" style="stop-color:#F7E4A0"/>
									<stop  offset="0.3086" style="stop-color:#F7E49F"/>
									<stop  offset="0.3125" style="stop-color:#F7E39E"/>
									<stop  offset="0.3164" style="stop-color:#F7E39D"/>
									<stop  offset="0.3203" style="stop-color:#F7E39D"/>
									<stop  offset="0.3242" style="stop-color:#F7E39C"/>
									<stop  offset="0.3281" style="stop-color:#F8E39B"/>
									<stop  offset="0.332" style="stop-color:#F7E29A"/>
									<stop  offset="0.3359" style="stop-color:#F7E29A"/>
									<stop  offset="0.3398" style="stop-color:#F7E299"/>
									<stop  offset="0.3438" style="stop-color:#F8E298"/>
									<stop  offset="0.3477" style="stop-color:#F8E297"/>
									<stop  offset="0.3516" style="stop-color:#F9E297"/>
									<stop  offset="0.3555" style="stop-color:#F9E296"/>
									<stop  offset="0.3594" style="stop-color:#F9E295"/>
									<stop  offset="0.3633" style="stop-color:#F9E195"/>
									<stop  offset="0.3672" style="stop-color:#F9E194"/>
									<stop  offset="0.3711" style="stop-color:#F9E193"/>
									<stop  offset="0.375" style="stop-color:#F9E192"/>
									<stop  offset="0.3789" style="stop-color:#F9E092"/>
									<stop  offset="0.3828" style="stop-color:#F9E091"/>
									<stop  offset="0.3867" style="stop-color:#F9E091"/>
									<stop  offset="0.3906" style="stop-color:#F9E08F"/>
									<stop  offset="0.3945" style="stop-color:#F9E08F"/>
									<stop  offset="0.3984" style="stop-color:#F9DF8E"/>
									<stop  offset="0.4023" style="stop-color:#F9DF8D"/>
									<stop  offset="0.4062" style="stop-color:#F8DE8D"/>
									<stop  offset="0.4102" style="stop-color:#F8DE8D"/>
									<stop  offset="0.4141" style="stop-color:#F8DD8C"/>
									<stop  offset="0.418" style="stop-color:#F9DE8A"/>
									<stop  offset="0.4219" style="stop-color:#F8DE8A"/>
									<stop  offset="0.4258" style="stop-color:#F8DE8A"/>
									<stop  offset="0.4297" style="stop-color:#F9DC88"/>
									<stop  offset="0.4336" style="stop-color:#F9DC88"/>
									<stop  offset="0.4375" style="stop-color:#F9DC86"/>
									<stop  offset="0.4414" style="stop-color:#F9DC86"/>
									<stop  offset="0.4453" style="stop-color:#F9DD86"/>
									<stop  offset="0.4492" style="stop-color:#F9DB85"/>
									<stop  offset="0.4531" style="stop-color:#FADC83"/>
									<stop  offset="0.457" style="stop-color:#FADC83"/>
									<stop  offset="0.4609" style="stop-color:#FADC82"/>
									<stop  offset="0.4648" style="stop-color:#FADB81"/>
									<stop  offset="0.4688" style="stop-color:#FADB81"/>
									<stop  offset="0.4727" style="stop-color:#FADB81"/>
									<stop  offset="0.4766" style="stop-color:#FADB80"/>
									<stop  offset="0.4805" style="stop-color:#FADB7F"/>
									<stop  offset="0.4844" style="stop-color:#F9D97F"/>
									<stop  offset="0.4883" style="stop-color:#F9D97E"/>
									<stop  offset="0.4922" style="stop-color:#FAD97D"/>
									<stop  offset="0.4961" style="stop-color:#FADA7C"/>
									<stop  offset="0.5" style="stop-color:#F9D97C"/>
									<stop  offset="0.5039" style="stop-color:#F9D87B"/>
									<stop  offset="0.5078" style="stop-color:#F9D87A"/>
									<stop  offset="0.5117" style="stop-color:#F9D87A"/>
									<stop  offset="0.5156" style="stop-color:#F9D87A"/>
									<stop  offset="0.5195" style="stop-color:#F9D879"/>
									<stop  offset="0.5234" style="stop-color:#F9D878"/>
									<stop  offset="0.5273" style="stop-color:#F9D878"/>
									<stop  offset="0.5312" style="stop-color:#F9D878"/>
									<stop  offset="0.5352" style="stop-color:#F9D777"/>
									<stop  offset="0.5391" style="stop-color:#F9D776"/>
									<stop  offset="0.543" style="stop-color:#F9D774"/>
									<stop  offset="0.5469" style="stop-color:#F9D774"/>
									<stop  offset="0.5508" style="stop-color:#FAD673"/>
									<stop  offset="0.5547" style="stop-color:#FAD672"/>
									<stop  offset="0.5586" style="stop-color:#FAD672"/>
									<stop  offset="0.5625" style="stop-color:#FAD671"/>
									<stop  offset="0.5664" style="stop-color:#FAD570"/>
									<stop  offset="0.5703" style="stop-color:#FAD56F"/>
									<stop  offset="0.5742" style="stop-color:#FAD56F"/>
									<stop  offset="0.5781" style="stop-color:#FAD56E"/>
									<stop  offset="0.582" style="stop-color:#FAD56C"/>
									<stop  offset="0.5859" style="stop-color:#FAD36B"/>
									<stop  offset="0.5898" style="stop-color:#FAD36B"/>
									<stop  offset="0.5938" style="stop-color:#FAD46A"/>
									<stop  offset="0.5977" style="stop-color:#FAD469"/>
									<stop  offset="0.6016" style="stop-color:#FAD268"/>
									<stop  offset="0.6055" style="stop-color:#FAD268"/>
									<stop  offset="0.6094" style="stop-color:#FAD268"/>
									<stop  offset="0.6133" style="stop-color:#FAD267"/>
									<stop  offset="0.6172" style="stop-color:#FAD266"/>
									<stop  offset="0.6211" style="stop-color:#FAD266"/>
									<stop  offset="0.625" style="stop-color:#FAD266"/>
									<stop  offset="0.6289" style="stop-color:#FAD165"/>
									<stop  offset="0.6328" style="stop-color:#FAD164"/>
									<stop  offset="0.6367" style="stop-color:#FAD164"/>
									<stop  offset="0.6406" style="stop-color:#FBD162"/>
									<stop  offset="0.6445" style="stop-color:#FBD162"/>
									<stop  offset="0.6484" style="stop-color:#FBD162"/>
									<stop  offset="0.6523" style="stop-color:#FCD060"/>
									<stop  offset="0.6562" style="stop-color:#FCD05F"/>
									<stop  offset="0.6602" style="stop-color:#FDD15D"/>
									<stop  offset="0.6641" style="stop-color:#FDD15D"/>
									<stop  offset="0.668" style="stop-color:#FDD15C"/>
									<stop  offset="0.6719" style="stop-color:#FCCF5B"/>
									<stop  offset="0.6758" style="stop-color:#FCCF5A"/>
									<stop  offset="0.6797" style="stop-color:#FCCF5A"/>
									<stop  offset="0.6836" style="stop-color:#FCCF59"/>
									<stop  offset="0.6875" style="stop-color:#FCCE59"/>
									<stop  offset="0.6914" style="stop-color:#FCCE58"/>
									<stop  offset="0.6953" style="stop-color:#FCCE58"/>
									<stop  offset="0.6992" style="stop-color:#FCCE58"/>
									<stop  offset="0.7031" style="stop-color:#FCCE57"/>
									<stop  offset="0.707" style="stop-color:#FCCE56"/>
									<stop  offset="0.7109" style="stop-color:#FCCE56"/>
									<stop  offset="0.7148" style="stop-color:#FCCD55"/>
									<stop  offset="0.7188" style="stop-color:#FCCD54"/>
									<stop  offset="0.7227" style="stop-color:#FCCC53"/>
									<stop  offset="0.7266" style="stop-color:#FCCC53"/>
									<stop  offset="0.7305" style="stop-color:#FCCD52"/>
									<stop  offset="0.7344" style="stop-color:#FCCD50"/>
									<stop  offset="0.7383" style="stop-color:#FCCB50"/>
									<stop  offset="0.7422" style="stop-color:#FCCB4F"/>
									<stop  offset="0.7461" style="stop-color:#FCCB4E"/>
									<stop  offset="0.75" style="stop-color:#FCCB4C"/>
									<stop  offset="0.7539" style="stop-color:#FDCB4C"/>
									<stop  offset="0.7578" style="stop-color:#FDCA4A"/>
									<stop  offset="0.7617" style="stop-color:#FDCA4A"/>
									<stop  offset="0.7656" style="stop-color:#FDCA49"/>
									<stop  offset="0.7695" style="stop-color:#FDCA49"/>
									<stop  offset="0.7734" style="stop-color:#FDC949"/>
									<stop  offset="0.7773" style="stop-color:#FDC948"/>
									<stop  offset="0.7812" style="stop-color:#FDC946"/>
									<stop  offset="0.7852" style="stop-color:#FDC946"/>
									<stop  offset="0.7891" style="stop-color:#FDC945"/>
									<stop  offset="0.793" style="stop-color:#FFC845"/>
									<stop  offset="0.7969" style="stop-color:#FFC944"/>
									<stop  offset="0.8008" style="stop-color:#FFC944"/>
									<stop  offset="0.8047" style="stop-color:#FFC941"/>
									<stop  offset="0.8086" style="stop-color:#FFC740"/>
									<stop  offset="0.8125" style="stop-color:#FFC83F"/>
									<stop  offset="0.8164" style="stop-color:#FFC83F"/>
									<stop  offset="0.8203" style="stop-color:#FFC83F"/>
									<stop  offset="0.8242" style="stop-color:#FFC73E"/>
									<stop  offset="0.8281" style="stop-color:#FFC73E"/>
									<stop  offset="0.832" style="stop-color:#FFC73E"/>
									<stop  offset="0.8359" style="stop-color:#FFC73D"/>
									<stop  offset="0.8398" style="stop-color:#FFC73C"/>
									<stop  offset="0.8438" style="stop-color:#FFC63C"/>
									<stop  offset="0.8477" style="stop-color:#FFC63C"/>
									<stop  offset="0.8516" style="stop-color:#FFC63B"/>
									<stop  offset="0.8555" style="stop-color:#FFC63A"/>
									<stop  offset="0.8594" style="stop-color:#FFC43A"/>
									<stop  offset="0.8633" style="stop-color:#FFC439"/>
									<stop  offset="0.8672" style="stop-color:#FFC437"/>
									<stop  offset="0.8711" style="stop-color:#FFC436"/>
									<stop  offset="0.875" style="stop-color:#FFC436"/>
									<stop  offset="0.8789" style="stop-color:#FFC335"/>
									<stop  offset="0.8828" style="stop-color:#FFC335"/>
									<stop  offset="0.8867" style="stop-color:#FFC334"/>
									<stop  offset="0.8906" style="stop-color:#FFC334"/>
									<stop  offset="0.8945" style="stop-color:#FFC333"/>
									<stop  offset="0.8984" style="stop-color:#FFC332"/>
									<stop  offset="0.9062" style="stop-color:#FFC332"/>
									<stop  offset="0.9375" style="stop-color:#FFC332"/>
									<stop  offset="1" style="stop-color:#FFC332"/>
								</linearGradient>
								<path style="fill:url(#SVGID_00000072238945286382309420000013503800955710951330_);" d="M986.1,801.1v601.8h609.4V801.1
									H986.1z"/>
							</g>
						</g>
					</g>
				</g>
			</g>
			<g class="st11">
				<g>
					<defs>
						<path id="SVGID_00000009582558117251801850000017084379230556973707_" d="M1304,1098.5c19.2-17.5,36.3-38.1,49.9-59.9
							l-53.8-47.2c-13.1,22.8-29.8,43.3-47.7,59.9l-45.9-42c55.1-15.3,79.2-39.8,79.2-79.6c0-62.6-53.8-91.9-112.4-91.9
							c-65.2,0-113.3,37.2-113.3,94.9c0,19.2,6.6,38.1,17.1,54.7c-42.4,18.8-60.8,44.2-60.8,84.4c0,63,50.8,94.1,126.9,94.1
							c33.2,0,69.1-6.6,102.8-25.4l19.7,18.8h105L1304,1098.5z M1176.7,903.4c18.4,0,31.1,10.9,31.1,28c0,16.2-14.4,26.7-47.7,34.1
							c-8.7-10.5-12.7-21-12.7-31.5C1147.4,916,1158.8,903.4,1176.7,903.4z M1153.5,1100.2c-26.2,0-44.6-14.4-44.6-33.7
							c0-16.2,6.6-24.9,21.4-29.8l63,54.7C1179.3,1097.2,1165.8,1100.2,1153.5,1100.2z"/>
					</defs>
					<clipPath id="SVGID_00000161607553563034733100000011563908476947913863_">
						<use xlink:href="#SVGID_00000009582558117251801850000017084379230556973707_"  style="overflow:visible;"/>
					</clipPath>
					<g style="clip-path:url(#SVGID_00000161607553563034733100000011563908476947913863_);">
						<g>
							<defs>
								<rect id="SVGID_00000045602467716127290300000013685459714696593582_" x="793.3" y="603.1" width="593.8" height="596"/>
							</defs>
							<clipPath id="SVGID_00000059295479994429258620000009407334225529991058_">
								<use xlink:href="#SVGID_00000045602467716127290300000013685459714696593582_"  style="overflow:visible;"/>
							</clipPath>
							<g style="clip-path:url(#SVGID_00000059295479994429258620000009407334225529991058_);">
								<g>
									<defs>
										<path id="SVGID_00000039127279677448629870000013222118788245913269_" d="M1190.4,603.5c-203.1,0-190.4,88.1-190.4,88.1
											l0.2,91.2h193.8v27.4H923.3c0,0-130-14.7-130,190.2c0,204.9,113.4,197.7,113.4,197.7h67.7v-95.1
											c0,0-3.7-113.4,111.6-113.4c115.3,0,192.2,0,192.2,0s108,1.8,108-104.4s0-175.5,0-175.5S1402.7,603.5,1190.4,603.5z
											 M1083.6,664.8c19.3,0,34.9,15.6,34.9,34.9s-15.6,34.9-34.9,34.9c-19.3,0-34.9-15.6-34.9-34.9S1064.3,664.8,1083.6,664.8z
											"/>
									</defs>
									<clipPath id="SVGID_00000023269454862828667550000011367855246584157863_">
										<use xlink:href="#SVGID_00000039127279677448629870000013222118788245913269_"  style="overflow:visible;"/>
									</clipPath>
									<g style="clip-path:url(#SVGID_00000023269454862828667550000011367855246584157863_);">
										<path class="st15" d="M793.3,603.5v601.8h609.3V603.5H793.3z"/>
									</g>
									
										<use xlink:href="#SVGID_00000039127279677448629870000013222118788245913269_"  style="overflow:visible;fill:none;stroke:#231F20;stroke-width:7;stroke-miterlimit:10;"/>
								</g>
							</g>
							
								<use xlink:href="#SVGID_00000045602467716127290300000013685459714696593582_"  style="overflow:visible;fill:none;stroke:#231F20;stroke-width:7;stroke-miterlimit:10;"/>
						</g>
						<g>
							<defs>
								<rect id="SVGID_00000141424058211878909510000002091798568122574239_" x="999.2" y="804.5" width="594.2" height="596"/>
							</defs>
							<clipPath id="SVGID_00000096026454521558713590000016485072522502239898_">
								<use xlink:href="#SVGID_00000141424058211878909510000002091798568122574239_"  style="overflow:visible;"/>
							</clipPath>
							<g style="clip-path:url(#SVGID_00000096026454521558713590000016485072522502239898_);">
								<g>
									<defs>
										<path id="SVGID_00000094586425148477706490000012410764489354183576_" d="M1196.2,1399.3c203.1,0,190.4-88.1,190.4-88.1
											l-0.2-91.2h-193.8v-27.4h270.8c0,0,130,14.7,130-190.2c0-204.9-113.4-197.7-113.4-197.7h-67.7v95.1
											c0,0,3.7,113.4-111.6,113.4c-115.3,0-192.2,0-192.2,0s-108-1.7-108,104.4c0,106.1,0,175.5,0,175.5
											S984,1399.3,1196.2,1399.3z M1303.1,1337.9c-19.3,0-34.9-15.6-34.9-34.9c0-19.3,15.6-34.9,34.9-34.9
											c19.3,0,34.9,15.6,34.9,34.9C1337.9,1322.4,1322.4,1337.9,1303.1,1337.9z"/>
									</defs>
									<clipPath id="SVGID_00000081641793511310336250000011485866743059005589_">
										<use xlink:href="#SVGID_00000094586425148477706490000012410764489354183576_"  style="overflow:visible;"/>
									</clipPath>
									<g style="clip-path:url(#SVGID_00000081641793511310336250000011485866743059005589_);">
										<path class="st15" d="M984,797.5v601.8h609.4V797.5H984z"/>
									</g>
									
										<use xlink:href="#SVGID_00000094586425148477706490000012410764489354183576_"  style="overflow:visible;fill:none;stroke:#231F20;stroke-width:7;stroke-miterlimit:10;"/>
								</g>
							</g>
							
								<use xlink:href="#SVGID_00000141424058211878909510000002091798568122574239_"  style="overflow:visible;fill:none;stroke:#231F20;stroke-width:7;stroke-miterlimit:10;"/>
						</g>
					</g>
					
						<use xlink:href="#SVGID_00000009582558117251801850000017084379230556973707_"  style="overflow:visible;fill:none;stroke:#231F20;stroke-width:7;stroke-miterlimit:10;"/>
				</g>
			</g>
		</g>
		<text transform="matrix(1 0 0 1 203.0183 1302.2876)" class="st18 st19 st20">D</text>
		<text transform="matrix(1 0 0 1 1646.1611 1301.7173)" class="st18 st19 st21">I</text>
	</g>
</g>
</svg>
