<svg version="1.1" xmlns="http://www.w3.org/2000/svg" xmlns:xlink="http://www.w3.org/1999/xlink" x="0px" y="0px" viewBox="0 0 649.78 750.3" style="enable-background:new 0 0 649.78 750.3;" xml:space="preserve"><g id="Layer_2"><rect x="-321.11" y="-2154.71" width="1400" height="1500"/></g><g id="Layer_3"><rect x="1078.89" y="-2154.71" width="1400" height="1500"/></g><g id="Layer_1"><polygon fill="#ffffff" points="649.78,312.62 649.78,187.57 541.48,125.05 433.19,62.52 433.18,62.53 324.89,0 216.59,62.53 216.59,62.53 216.59,62.53 216.59,62.52 108.3,125.05 0,187.57 0,312.62 108.3,375.15 216.59,437.67 216.59,437.67 324.89,500.2 324.89,375.15 433.18,437.67 433.19,437.67 541.48,500.2 433.19,562.72 433.18,562.72 324.89,625.25 324.89,625.25 216.59,562.72 216.59,562.72 108.3,500.2 108.3,375.15 0,437.67 0,562.72 108.3,625.25 216.59,687.77 216.59,687.77 324.89,750.3 433.18,687.77 433.18,687.77 433.19,687.77 541.48,625.25 649.78,562.72 649.78,437.67 541.48,375.15 433.19,312.62 433.18,312.62 324.89,250.1 324.89,375.15 216.59,312.62 216.59,312.62 108.3,250.1 216.59,187.57 216.59,187.57 324.89,125.05 324.89,125.05 433.19,187.57 433.19,187.57 541.48,250.1 541.48,375.15 "/><polygon points="2103.78,-1467.24 2103.78,-1592.29 1995.48,-1654.81 1887.19,-1717.34 1887.18,-1717.34 1778.89,-1779.86 1670.59,-1717.34 1670.59,-1717.34 1670.59,-1717.34 1670.59,-1717.34 1562.3,-1654.81 1454,-1592.29 1454,-1467.24 1562.3,-1404.71 1670.59,-1342.19 1670.59,-1342.19 1778.89,-1279.66 1778.89,-1404.71 1887.18,-1342.19 1887.19,-1342.19 1995.48,-1279.66 1887.19,-1217.14 1887.18,-1217.14 1778.89,-1154.61 1778.89,-1154.61 1670.59,-1217.14 1670.59,-1217.14 1562.3,-1279.66 1562.3,-1404.71 1454,-1342.19 1454,-1217.14 1562.3,-1154.61 1670.59,-1092.09 1670.59,-1092.09 1778.89,-1029.57 1887.18,-1092.09 1887.18,-1092.09 1887.19,-1092.09 1995.48,-1154.61 2103.78,-1217.14 2103.78,-1342.19 1995.48,-1404.71 1887.19,-1467.24 1887.18,-1467.24 1778.89,-1529.76 1778.89,-1404.71 1670.59,-1467.24 1670.59,-1467.24 1562.3,-1529.76 1670.59,-1592.29 1670.59,-1592.29 1778.89,-1654.81 1778.89,-1654.81 1887.19,-1592.29 1887.19,-1592.29 1995.48,-1529.76 1995.48,-1404.71 "/></g></svg>