<svg xmlns="http://www.w3.org/2000/svg" xmlns:xlink="http://www.w3.org/1999/xlink" width="2000" zoomAndPan="magnify" viewBox="0 0 1500 1499.999933" height="2000" preserveAspectRatio="xMidYMid meet" version="1.0"><defs><g/><clipPath id="c29372ee3c"><path d="M 481.640625 456 L 927 456 L 927 903 L 481.640625 903 Z M 481.640625 456 " clip-rule="nonzero"/></clipPath><clipPath id="717e16f475"><path d="M 779.472656 456.25 C 627.15625 456.25 636.667969 522.304688 636.667969 522.304688 L 636.839844 590.734375 L 782.191406 590.734375 L 782.191406 611.28125 L 579.105469 611.28125 C 579.105469 611.28125 481.636719 600.226562 481.636719 753.917969 C 481.636719 907.605469 566.710938 902.15625 566.710938 902.15625 L 617.480469 902.15625 L 617.480469 830.839844 C 617.480469 830.839844 614.742188 745.765625 701.195312 745.765625 C 787.644531 745.765625 845.359375 745.765625 845.359375 745.765625 C 845.359375 745.765625 926.355469 747.078125 926.355469 667.488281 C 926.355469 587.898438 926.355469 535.886719 926.355469 535.886719 C 926.355469 535.886719 938.652344 456.25 779.472656 456.25 Z M 699.328125 502.265625 C 713.789062 502.265625 725.476562 513.957031 725.476562 528.417969 C 725.476562 542.878906 713.789062 554.566406 699.328125 554.566406 C 684.863281 554.566406 673.175781 542.878906 673.175781 528.417969 C 673.175781 513.957031 684.863281 502.265625 699.328125 502.265625 Z M 699.328125 502.265625 " clip-rule="nonzero"/></clipPath><linearGradient x1="45.460652" gradientTransform="matrix(5.433749, 0, 0, 5.433749, 237.457863, 89.641816)" y1="66.94784" x2="128.905684" gradientUnits="userSpaceOnUse" y2="150.672543" id="c78a19cbea"><stop stop-opacity="1" stop-color="rgb(21.998596%, 49.398804%, 72.198486%)" offset="0"/><stop stop-opacity="1" stop-color="rgb(21.998596%, 49.467468%, 72.285461%)" offset="0.125"/><stop stop-opacity="1" stop-color="rgb(21.998596%, 49.668884%, 72.538757%)" offset="0.132812"/><stop stop-opacity="1" stop-color="rgb(21.998596%, 49.931335%, 72.871399%)" offset="0.140625"/><stop stop-opacity="1" stop-color="rgb(21.998596%, 50.193787%, 73.202515%)" offset="0.148438"/><stop stop-opacity="1" stop-color="rgb(21.998596%, 50.456238%, 73.535156%)" offset="0.15625"/><stop stop-opacity="1" stop-color="rgb(21.998596%, 50.718689%, 73.866272%)" offset="0.164062"/><stop stop-opacity="1" stop-color="rgb(21.998596%, 50.98114%, 74.198914%)" offset="0.171875"/><stop stop-opacity="1" stop-color="rgb(21.998596%, 51.245117%, 74.530029%)" offset="0.179687"/><stop stop-opacity="1" stop-color="rgb(21.998596%, 51.507568%, 74.862671%)" offset="0.1875"/><stop stop-opacity="1" stop-color="rgb(21.998596%, 51.77002%, 75.193787%)" offset="0.195312"/><stop stop-opacity="1" stop-color="rgb(21.998596%, 52.032471%, 75.526428%)" offset="0.203125"/><stop stop-opacity="1" stop-color="rgb(21.998596%, 52.294922%, 75.85907%)" offset="0.210937"/><stop stop-opacity="1" stop-color="rgb(21.998596%, 52.557373%, 76.190186%)" offset="0.21875"/><stop stop-opacity="1" stop-color="rgb(21.998596%, 52.819824%, 76.522827%)" offset="0.226562"/><stop stop-opacity="1" stop-color="rgb(21.998596%, 53.083801%, 76.853943%)" offset="0.234375"/><stop stop-opacity="1" stop-color="rgb(21.998596%, 53.346252%, 77.186584%)" offset="0.242188"/><stop stop-opacity="1" stop-color="rgb(21.998596%, 53.608704%, 77.5177%)" offset="0.25"/><stop stop-opacity="1" stop-color="rgb(21.998596%, 53.871155%, 77.850342%)" offset="0.257812"/><stop stop-opacity="1" stop-color="rgb(21.998596%, 54.133606%, 78.181458%)" offset="0.265625"/><stop stop-opacity="1" stop-color="rgb(21.998596%, 54.396057%, 78.514099%)" offset="0.273438"/><stop stop-opacity="1" stop-color="rgb(21.998596%, 54.658508%, 78.845215%)" offset="0.28125"/><stop stop-opacity="1" stop-color="rgb(21.998596%, 54.922485%, 79.177856%)" offset="0.289062"/><stop stop-opacity="1" stop-color="rgb(21.998596%, 55.184937%, 79.508972%)" offset="0.296875"/><stop stop-opacity="1" stop-color="rgb(21.998596%, 55.447388%, 79.841614%)" offset="0.304687"/><stop stop-opacity="1" stop-color="rgb(21.998596%, 55.709839%, 80.172729%)" offset="0.3125"/><stop stop-opacity="1" stop-color="rgb(21.998596%, 55.97229%, 80.505371%)" offset="0.320312"/><stop stop-opacity="1" stop-color="rgb(21.998596%, 56.234741%, 80.838013%)" offset="0.328125"/><stop stop-opacity="1" stop-color="rgb(21.998596%, 56.498718%, 81.169128%)" offset="0.335937"/><stop stop-opacity="1" stop-color="rgb(21.998596%, 56.761169%, 81.50177%)" offset="0.34375"/><stop stop-opacity="1" stop-color="rgb(21.998596%, 57.023621%, 81.832886%)" offset="0.351562"/><stop stop-opacity="1" stop-color="rgb(21.998596%, 57.286072%, 82.165527%)" offset="0.359375"/><stop stop-opacity="1" stop-color="rgb(21.998596%, 57.548523%, 82.496643%)" offset="0.367187"/><stop stop-opacity="1" stop-color="rgb(21.998596%, 57.810974%, 82.829285%)" offset="0.375"/><stop stop-opacity="1" stop-color="rgb(21.998596%, 58.073425%, 83.1604%)" offset="0.382812"/><stop stop-opacity="1" stop-color="rgb(21.998596%, 58.337402%, 83.493042%)" offset="0.390625"/><stop stop-opacity="1" stop-color="rgb(21.998596%, 58.599854%, 83.824158%)" offset="0.398437"/><stop stop-opacity="1" stop-color="rgb(21.998596%, 58.862305%, 84.156799%)" offset="0.40625"/><stop stop-opacity="1" stop-color="rgb(21.998596%, 59.124756%, 84.487915%)" offset="0.414062"/><stop stop-opacity="1" stop-color="rgb(21.998596%, 59.387207%, 84.820557%)" offset="0.421875"/><stop stop-opacity="1" stop-color="rgb(21.998596%, 59.649658%, 85.151672%)" offset="0.429687"/><stop stop-opacity="1" stop-color="rgb(21.998596%, 59.912109%, 85.484314%)" offset="0.4375"/><stop stop-opacity="1" stop-color="rgb(21.998596%, 60.176086%, 85.816956%)" offset="0.445312"/><stop stop-opacity="1" stop-color="rgb(21.998596%, 60.438538%, 86.148071%)" offset="0.453125"/><stop stop-opacity="1" stop-color="rgb(21.998596%, 60.700989%, 86.480713%)" offset="0.460937"/><stop stop-opacity="1" stop-color="rgb(21.998596%, 60.96344%, 86.811829%)" offset="0.46875"/><stop stop-opacity="1" stop-color="rgb(21.998596%, 61.225891%, 87.14447%)" offset="0.476562"/><stop stop-opacity="1" stop-color="rgb(21.998596%, 61.488342%, 87.475586%)" offset="0.484375"/><stop stop-opacity="1" stop-color="rgb(21.998596%, 61.750793%, 87.808228%)" offset="0.492187"/><stop stop-opacity="1" stop-color="rgb(21.998596%, 62.014771%, 88.139343%)" offset="0.497723"/><stop stop-opacity="1" stop-color="rgb(21.998596%, 62.145996%, 88.305664%)" offset="0.5"/><stop stop-opacity="1" stop-color="rgb(21.998596%, 62.277222%, 88.471985%)" offset="0.502277"/><stop stop-opacity="1" stop-color="rgb(21.998596%, 62.408447%, 88.638306%)" offset="0.507812"/><stop stop-opacity="1" stop-color="rgb(21.998596%, 62.539673%, 88.803101%)" offset="0.515625"/><stop stop-opacity="1" stop-color="rgb(21.998596%, 62.802124%, 89.135742%)" offset="0.523437"/><stop stop-opacity="1" stop-color="rgb(21.998596%, 63.064575%, 89.466858%)" offset="0.53125"/><stop stop-opacity="1" stop-color="rgb(21.998596%, 63.327026%, 89.7995%)" offset="0.539062"/><stop stop-opacity="1" stop-color="rgb(21.998596%, 63.589478%, 90.130615%)" offset="0.546875"/><stop stop-opacity="1" stop-color="rgb(21.998596%, 63.853455%, 90.463257%)" offset="0.554687"/><stop stop-opacity="1" stop-color="rgb(21.998596%, 64.115906%, 90.794373%)" offset="0.5625"/><stop stop-opacity="1" stop-color="rgb(21.998596%, 64.378357%, 91.127014%)" offset="0.570312"/><stop stop-opacity="1" stop-color="rgb(21.998596%, 64.640808%, 91.459656%)" offset="0.578125"/><stop stop-opacity="1" stop-color="rgb(21.998596%, 64.903259%, 91.790771%)" offset="0.585937"/><stop stop-opacity="1" stop-color="rgb(21.998596%, 65.16571%, 92.123413%)" offset="0.59375"/><stop stop-opacity="1" stop-color="rgb(21.998596%, 65.429688%, 92.454529%)" offset="0.601562"/><stop stop-opacity="1" stop-color="rgb(21.998596%, 65.692139%, 92.78717%)" offset="0.609375"/><stop stop-opacity="1" stop-color="rgb(21.998596%, 65.95459%, 93.118286%)" offset="0.617187"/><stop stop-opacity="1" stop-color="rgb(21.998596%, 66.217041%, 93.450928%)" offset="0.625"/><stop stop-opacity="1" stop-color="rgb(21.998596%, 66.479492%, 93.782043%)" offset="0.632812"/><stop stop-opacity="1" stop-color="rgb(21.998596%, 66.741943%, 94.114685%)" offset="0.640625"/><stop stop-opacity="1" stop-color="rgb(21.998596%, 67.004395%, 94.445801%)" offset="0.648438"/><stop stop-opacity="1" stop-color="rgb(21.998596%, 67.268372%, 94.778442%)" offset="0.65625"/><stop stop-opacity="1" stop-color="rgb(21.998596%, 67.530823%, 95.109558%)" offset="0.664062"/><stop stop-opacity="1" stop-color="rgb(21.998596%, 67.793274%, 95.4422%)" offset="0.671875"/><stop stop-opacity="1" stop-color="rgb(21.998596%, 68.055725%, 95.773315%)" offset="0.679688"/><stop stop-opacity="1" stop-color="rgb(21.998596%, 68.318176%, 96.105957%)" offset="0.6875"/><stop stop-opacity="1" stop-color="rgb(21.998596%, 68.580627%, 96.438599%)" offset="0.695312"/><stop stop-opacity="1" stop-color="rgb(21.998596%, 68.843079%, 96.769714%)" offset="0.703125"/><stop stop-opacity="1" stop-color="rgb(21.998596%, 69.107056%, 97.102356%)" offset="0.710938"/><stop stop-opacity="1" stop-color="rgb(21.998596%, 69.369507%, 97.433472%)" offset="0.71875"/><stop stop-opacity="1" stop-color="rgb(21.998596%, 69.631958%, 97.766113%)" offset="0.726562"/><stop stop-opacity="1" stop-color="rgb(21.998596%, 69.894409%, 98.097229%)" offset="0.734375"/><stop stop-opacity="1" stop-color="rgb(21.998596%, 70.15686%, 98.429871%)" offset="0.742188"/><stop stop-opacity="1" stop-color="rgb(21.998596%, 70.419312%, 98.760986%)" offset="0.75"/><stop stop-opacity="1" stop-color="rgb(21.998596%, 70.681763%, 99.093628%)" offset="0.757812"/><stop stop-opacity="1" stop-color="rgb(21.998596%, 70.94574%, 99.424744%)" offset="0.765625"/><stop stop-opacity="1" stop-color="rgb(21.998596%, 71.208191%, 99.757385%)" offset="0.773438"/><stop stop-opacity="1" stop-color="rgb(21.998596%, 71.368408%, 99.961853%)" offset="0.78125"/><stop stop-opacity="1" stop-color="rgb(21.998596%, 71.398926%, 100%)" offset="0.8125"/><stop stop-opacity="1" stop-color="rgb(21.998596%, 71.398926%, 100%)" offset="0.875"/><stop stop-opacity="1" stop-color="rgb(21.998596%, 71.398926%, 100%)" offset="1"/></linearGradient><clipPath id="ce9bc440fe"><path d="M 636 607 L 1081.640625 607 L 1081.640625 1054 L 636 1054 Z M 636 607 " clip-rule="nonzero"/></clipPath><clipPath id="6b96e181e1"><path d="M 783.800781 1053.125 C 936.117188 1053.125 926.605469 987.070312 926.605469 987.070312 L 926.4375 918.640625 L 781.082031 918.640625 L 781.082031 898.09375 L 984.167969 898.09375 C 984.167969 898.09375 1081.636719 909.148438 1081.636719 755.457031 C 1081.636719 601.769531 996.566406 607.21875 996.566406 607.21875 L 945.792969 607.21875 L 945.792969 678.535156 C 945.792969 678.535156 948.53125 763.609375 862.078125 763.609375 C 775.628906 763.609375 717.914062 763.609375 717.914062 763.609375 C 717.914062 763.609375 636.917969 762.300781 636.917969 841.890625 C 636.917969 921.476562 636.917969 973.488281 636.917969 973.488281 C 636.917969 973.488281 624.621094 1053.125 783.800781 1053.125 Z M 863.949219 1007.109375 C 849.484375 1007.109375 837.796875 995.421875 837.796875 980.960938 C 837.796875 966.496094 849.484375 954.808594 863.949219 954.808594 C 878.410156 954.808594 890.097656 966.496094 890.097656 980.960938 C 890.097656 995.421875 878.410156 1007.109375 863.949219 1007.109375 Z M 863.949219 1007.109375 " clip-rule="nonzero"/></clipPath><linearGradient x1="70.983589" gradientTransform="matrix(5.433749, 0, 0, 5.433749, 237.457863, 89.641816)" y1="94.529135" x2="156.332851" gradientUnits="userSpaceOnUse" y2="176.297933" id="ba6d5aa0a8"><stop stop-opacity="1" stop-color="rgb(97.299194%, 92.199707%, 70.199585%)" offset="0"/><stop stop-opacity="1" stop-color="rgb(97.299194%, 92.199707%, 70.199585%)" offset="0.125"/><stop stop-opacity="1" stop-color="rgb(97.299194%, 92.199707%, 70.199585%)" offset="0.1875"/><stop stop-opacity="1" stop-color="rgb(97.299194%, 92.199707%, 70.199585%)" offset="0.203125"/><stop stop-opacity="1" stop-color="rgb(97.299194%, 92.199707%, 70.199585%)" offset="0.210938"/><stop stop-opacity="1" stop-color="rgb(97.311401%, 92.129517%, 69.973755%)" offset="0.214844"/><stop stop-opacity="1" stop-color="rgb(97.323608%, 92.060852%, 69.749451%)" offset="0.21875"/><stop stop-opacity="1" stop-color="rgb(97.338867%, 91.970825%, 69.459534%)" offset="0.222656"/><stop stop-opacity="1" stop-color="rgb(97.354126%, 91.882324%, 69.169617%)" offset="0.226562"/><stop stop-opacity="1" stop-color="rgb(97.369385%, 91.792297%, 68.8797%)" offset="0.230469"/><stop stop-opacity="1" stop-color="rgb(97.384644%, 91.703796%, 68.589783%)" offset="0.234375"/><stop stop-opacity="1" stop-color="rgb(97.399902%, 91.61377%, 68.299866%)" offset="0.238281"/><stop stop-opacity="1" stop-color="rgb(97.415161%, 91.525269%, 68.009949%)" offset="0.242187"/><stop stop-opacity="1" stop-color="rgb(97.43042%, 91.435242%, 67.720032%)" offset="0.246094"/><stop stop-opacity="1" stop-color="rgb(97.445679%, 91.346741%, 67.430115%)" offset="0.25"/><stop stop-opacity="1" stop-color="rgb(97.460938%, 91.256714%, 67.140198%)" offset="0.253906"/><stop stop-opacity="1" stop-color="rgb(97.476196%, 91.168213%, 66.850281%)" offset="0.257812"/><stop stop-opacity="1" stop-color="rgb(97.491455%, 91.078186%, 66.560364%)" offset="0.261719"/><stop stop-opacity="1" stop-color="rgb(97.506714%, 90.989685%, 66.270447%)" offset="0.265625"/><stop stop-opacity="1" stop-color="rgb(97.521973%, 90.899658%, 65.98053%)" offset="0.269531"/><stop stop-opacity="1" stop-color="rgb(97.537231%, 90.811157%, 65.690613%)" offset="0.273438"/><stop stop-opacity="1" stop-color="rgb(97.55249%, 90.72113%, 65.400696%)" offset="0.277344"/><stop stop-opacity="1" stop-color="rgb(97.569275%, 90.632629%, 65.110779%)" offset="0.28125"/><stop stop-opacity="1" stop-color="rgb(97.584534%, 90.542603%, 64.820862%)" offset="0.285156"/><stop stop-opacity="1" stop-color="rgb(97.599792%, 90.454102%, 64.530945%)" offset="0.289062"/><stop stop-opacity="1" stop-color="rgb(97.615051%, 90.364075%, 64.241028%)" offset="0.292969"/><stop stop-opacity="1" stop-color="rgb(97.63031%, 90.275574%, 63.951111%)" offset="0.296875"/><stop stop-opacity="1" stop-color="rgb(97.645569%, 90.185547%, 63.661194%)" offset="0.300781"/><stop stop-opacity="1" stop-color="rgb(97.660828%, 90.097046%, 63.371277%)" offset="0.304688"/><stop stop-opacity="1" stop-color="rgb(97.676086%, 90.007019%, 63.08136%)" offset="0.308594"/><stop stop-opacity="1" stop-color="rgb(97.691345%, 89.918518%, 62.791443%)" offset="0.3125"/><stop stop-opacity="1" stop-color="rgb(97.706604%, 89.828491%, 62.501526%)" offset="0.316406"/><stop stop-opacity="1" stop-color="rgb(97.721863%, 89.73999%, 62.211609%)" offset="0.320312"/><stop stop-opacity="1" stop-color="rgb(97.737122%, 89.649963%, 61.920166%)" offset="0.324219"/><stop stop-opacity="1" stop-color="rgb(97.75238%, 89.561462%, 61.630249%)" offset="0.328125"/><stop stop-opacity="1" stop-color="rgb(97.767639%, 89.471436%, 61.340332%)" offset="0.332031"/><stop stop-opacity="1" stop-color="rgb(97.782898%, 89.382935%, 61.050415%)" offset="0.335938"/><stop stop-opacity="1" stop-color="rgb(97.798157%, 89.292908%, 60.760498%)" offset="0.339844"/><stop stop-opacity="1" stop-color="rgb(97.814941%, 89.204407%, 60.470581%)" offset="0.34375"/><stop stop-opacity="1" stop-color="rgb(97.8302%, 89.11438%, 60.180664%)" offset="0.347656"/><stop stop-opacity="1" stop-color="rgb(97.845459%, 89.025879%, 59.890747%)" offset="0.351562"/><stop stop-opacity="1" stop-color="rgb(97.860718%, 88.935852%, 59.60083%)" offset="0.355469"/><stop stop-opacity="1" stop-color="rgb(97.875977%, 88.847351%, 59.310913%)" offset="0.359375"/><stop stop-opacity="1" stop-color="rgb(97.891235%, 88.757324%, 59.020996%)" offset="0.363281"/><stop stop-opacity="1" stop-color="rgb(97.906494%, 88.668823%, 58.731079%)" offset="0.367188"/><stop stop-opacity="1" stop-color="rgb(97.921753%, 88.578796%, 58.441162%)" offset="0.371094"/><stop stop-opacity="1" stop-color="rgb(97.937012%, 88.490295%, 58.151245%)" offset="0.375"/><stop stop-opacity="1" stop-color="rgb(97.952271%, 88.400269%, 57.861328%)" offset="0.378906"/><stop stop-opacity="1" stop-color="rgb(97.967529%, 88.311768%, 57.571411%)" offset="0.382812"/><stop stop-opacity="1" stop-color="rgb(97.982788%, 88.221741%, 57.281494%)" offset="0.386719"/><stop stop-opacity="1" stop-color="rgb(97.998047%, 88.13324%, 56.991577%)" offset="0.390625"/><stop stop-opacity="1" stop-color="rgb(98.013306%, 88.043213%, 56.70166%)" offset="0.394531"/><stop stop-opacity="1" stop-color="rgb(98.028564%, 87.954712%, 56.411743%)" offset="0.398438"/><stop stop-opacity="1" stop-color="rgb(98.043823%, 87.864685%, 56.121826%)" offset="0.402344"/><stop stop-opacity="1" stop-color="rgb(98.060608%, 87.776184%, 55.831909%)" offset="0.40625"/><stop stop-opacity="1" stop-color="rgb(98.075867%, 87.686157%, 55.541992%)" offset="0.410156"/><stop stop-opacity="1" stop-color="rgb(98.091125%, 87.597656%, 55.252075%)" offset="0.414062"/><stop stop-opacity="1" stop-color="rgb(98.106384%, 87.507629%, 54.962158%)" offset="0.417969"/><stop stop-opacity="1" stop-color="rgb(98.121643%, 87.419128%, 54.672241%)" offset="0.421875"/><stop stop-opacity="1" stop-color="rgb(98.136902%, 87.329102%, 54.382324%)" offset="0.425781"/><stop stop-opacity="1" stop-color="rgb(98.152161%, 87.240601%, 54.092407%)" offset="0.429688"/><stop stop-opacity="1" stop-color="rgb(98.167419%, 87.150574%, 53.80249%)" offset="0.433594"/><stop stop-opacity="1" stop-color="rgb(98.182678%, 87.062073%, 53.512573%)" offset="0.4375"/><stop stop-opacity="1" stop-color="rgb(98.197937%, 86.972046%, 53.222656%)" offset="0.441406"/><stop stop-opacity="1" stop-color="rgb(98.213196%, 86.883545%, 52.932739%)" offset="0.445312"/><stop stop-opacity="1" stop-color="rgb(98.228455%, 86.793518%, 52.642822%)" offset="0.449219"/><stop stop-opacity="1" stop-color="rgb(98.243713%, 86.705017%, 52.352905%)" offset="0.453125"/><stop stop-opacity="1" stop-color="rgb(98.258972%, 86.61499%, 52.062988%)" offset="0.457031"/><stop stop-opacity="1" stop-color="rgb(98.274231%, 86.526489%, 51.773071%)" offset="0.460938"/><stop stop-opacity="1" stop-color="rgb(98.28949%, 86.436462%, 51.481628%)" offset="0.464844"/><stop stop-opacity="1" stop-color="rgb(98.304749%, 86.347961%, 51.191711%)" offset="0.46875"/><stop stop-opacity="1" stop-color="rgb(98.320007%, 86.257935%, 50.901794%)" offset="0.472656"/><stop stop-opacity="1" stop-color="rgb(98.336792%, 86.169434%, 50.611877%)" offset="0.476563"/><stop stop-opacity="1" stop-color="rgb(98.352051%, 86.079407%, 50.32196%)" offset="0.480469"/><stop stop-opacity="1" stop-color="rgb(98.36731%, 85.990906%, 50.032043%)" offset="0.484375"/><stop stop-opacity="1" stop-color="rgb(98.382568%, 85.900879%, 49.742126%)" offset="0.488281"/><stop stop-opacity="1" stop-color="rgb(98.397827%, 85.812378%, 49.452209%)" offset="0.492188"/><stop stop-opacity="1" stop-color="rgb(98.413086%, 85.722351%, 49.162292%)" offset="0.496094"/><stop stop-opacity="1" stop-color="rgb(98.428345%, 85.63385%, 48.872375%)" offset="0.5"/><stop stop-opacity="1" stop-color="rgb(98.443604%, 85.543823%, 48.582458%)" offset="0.503906"/><stop stop-opacity="1" stop-color="rgb(98.458862%, 85.455322%, 48.292542%)" offset="0.507812"/><stop stop-opacity="1" stop-color="rgb(98.474121%, 85.365295%, 48.002625%)" offset="0.511719"/><stop stop-opacity="1" stop-color="rgb(98.48938%, 85.276794%, 47.712708%)" offset="0.515625"/><stop stop-opacity="1" stop-color="rgb(98.504639%, 85.186768%, 47.422791%)" offset="0.519531"/><stop stop-opacity="1" stop-color="rgb(98.519897%, 85.098267%, 47.132874%)" offset="0.523438"/><stop stop-opacity="1" stop-color="rgb(98.535156%, 85.00824%, 46.842957%)" offset="0.527344"/><stop stop-opacity="1" stop-color="rgb(98.550415%, 84.919739%, 46.55304%)" offset="0.53125"/><stop stop-opacity="1" stop-color="rgb(98.565674%, 84.829712%, 46.263123%)" offset="0.535156"/><stop stop-opacity="1" stop-color="rgb(98.582458%, 84.741211%, 45.973206%)" offset="0.539062"/><stop stop-opacity="1" stop-color="rgb(98.597717%, 84.651184%, 45.683289%)" offset="0.542969"/><stop stop-opacity="1" stop-color="rgb(98.612976%, 84.562683%, 45.393372%)" offset="0.546875"/><stop stop-opacity="1" stop-color="rgb(98.628235%, 84.472656%, 45.103455%)" offset="0.550781"/><stop stop-opacity="1" stop-color="rgb(98.643494%, 84.384155%, 44.813538%)" offset="0.554688"/><stop stop-opacity="1" stop-color="rgb(98.658752%, 84.294128%, 44.523621%)" offset="0.558594"/><stop stop-opacity="1" stop-color="rgb(98.674011%, 84.205627%, 44.233704%)" offset="0.5625"/><stop stop-opacity="1" stop-color="rgb(98.68927%, 84.115601%, 43.943787%)" offset="0.566406"/><stop stop-opacity="1" stop-color="rgb(98.704529%, 84.0271%, 43.65387%)" offset="0.570313"/><stop stop-opacity="1" stop-color="rgb(98.719788%, 83.937073%, 43.363953%)" offset="0.574219"/><stop stop-opacity="1" stop-color="rgb(98.735046%, 83.848572%, 43.074036%)" offset="0.578125"/><stop stop-opacity="1" stop-color="rgb(98.750305%, 83.758545%, 42.784119%)" offset="0.582031"/><stop stop-opacity="1" stop-color="rgb(98.765564%, 83.670044%, 42.494202%)" offset="0.585938"/><stop stop-opacity="1" stop-color="rgb(98.780823%, 83.580017%, 42.204285%)" offset="0.589844"/><stop stop-opacity="1" stop-color="rgb(98.796082%, 83.491516%, 41.914368%)" offset="0.59375"/><stop stop-opacity="1" stop-color="rgb(98.81134%, 83.401489%, 41.624451%)" offset="0.597656"/><stop stop-opacity="1" stop-color="rgb(98.828125%, 83.312988%, 41.334534%)" offset="0.601562"/><stop stop-opacity="1" stop-color="rgb(98.843384%, 83.222961%, 41.044617%)" offset="0.605469"/><stop stop-opacity="1" stop-color="rgb(98.858643%, 83.13446%, 40.7547%)" offset="0.609375"/><stop stop-opacity="1" stop-color="rgb(98.873901%, 83.044434%, 40.463257%)" offset="0.613281"/><stop stop-opacity="1" stop-color="rgb(98.88916%, 82.955933%, 40.17334%)" offset="0.617188"/><stop stop-opacity="1" stop-color="rgb(98.904419%, 82.865906%, 39.883423%)" offset="0.621094"/><stop stop-opacity="1" stop-color="rgb(98.919678%, 82.777405%, 39.593506%)" offset="0.625"/><stop stop-opacity="1" stop-color="rgb(98.934937%, 82.687378%, 39.303589%)" offset="0.628906"/><stop stop-opacity="1" stop-color="rgb(98.950195%, 82.598877%, 39.013672%)" offset="0.632812"/><stop stop-opacity="1" stop-color="rgb(98.965454%, 82.50885%, 38.723755%)" offset="0.636719"/><stop stop-opacity="1" stop-color="rgb(98.980713%, 82.420349%, 38.433838%)" offset="0.640625"/><stop stop-opacity="1" stop-color="rgb(98.995972%, 82.330322%, 38.143921%)" offset="0.644531"/><stop stop-opacity="1" stop-color="rgb(99.01123%, 82.241821%, 37.854004%)" offset="0.648438"/><stop stop-opacity="1" stop-color="rgb(99.026489%, 82.151794%, 37.564087%)" offset="0.652344"/><stop stop-opacity="1" stop-color="rgb(99.041748%, 82.063293%, 37.27417%)" offset="0.65625"/><stop stop-opacity="1" stop-color="rgb(99.057007%, 81.973267%, 36.984253%)" offset="0.660156"/><stop stop-opacity="1" stop-color="rgb(99.072266%, 81.884766%, 36.694336%)" offset="0.664062"/><stop stop-opacity="1" stop-color="rgb(99.087524%, 81.794739%, 36.404419%)" offset="0.667969"/><stop stop-opacity="1" stop-color="rgb(99.104309%, 81.706238%, 36.114502%)" offset="0.671875"/><stop stop-opacity="1" stop-color="rgb(99.119568%, 81.616211%, 35.824585%)" offset="0.675781"/><stop stop-opacity="1" stop-color="rgb(99.134827%, 81.52771%, 35.534668%)" offset="0.679688"/><stop stop-opacity="1" stop-color="rgb(99.150085%, 81.437683%, 35.244751%)" offset="0.683594"/><stop stop-opacity="1" stop-color="rgb(99.165344%, 81.349182%, 34.954834%)" offset="0.6875"/><stop stop-opacity="1" stop-color="rgb(99.180603%, 81.259155%, 34.664917%)" offset="0.691406"/><stop stop-opacity="1" stop-color="rgb(99.195862%, 81.170654%, 34.375%)" offset="0.695313"/><stop stop-opacity="1" stop-color="rgb(99.211121%, 81.080627%, 34.085083%)" offset="0.699219"/><stop stop-opacity="1" stop-color="rgb(99.226379%, 80.992126%, 33.795166%)" offset="0.703125"/><stop stop-opacity="1" stop-color="rgb(99.241638%, 80.9021%, 33.505249%)" offset="0.707031"/><stop stop-opacity="1" stop-color="rgb(99.256897%, 80.813599%, 33.215332%)" offset="0.710938"/><stop stop-opacity="1" stop-color="rgb(99.272156%, 80.723572%, 32.925415%)" offset="0.714844"/><stop stop-opacity="1" stop-color="rgb(99.287415%, 80.635071%, 32.635498%)" offset="0.71875"/><stop stop-opacity="1" stop-color="rgb(99.302673%, 80.545044%, 32.345581%)" offset="0.722656"/><stop stop-opacity="1" stop-color="rgb(99.317932%, 80.456543%, 32.055664%)" offset="0.726562"/><stop stop-opacity="1" stop-color="rgb(99.333191%, 80.366516%, 31.765747%)" offset="0.730469"/><stop stop-opacity="1" stop-color="rgb(99.349976%, 80.278015%, 31.47583%)" offset="0.734375"/><stop stop-opacity="1" stop-color="rgb(99.365234%, 80.187988%, 31.185913%)" offset="0.738281"/><stop stop-opacity="1" stop-color="rgb(99.380493%, 80.099487%, 30.895996%)" offset="0.742188"/><stop stop-opacity="1" stop-color="rgb(99.395752%, 80.00946%, 30.606079%)" offset="0.746094"/><stop stop-opacity="1" stop-color="rgb(99.411011%, 79.920959%, 30.316162%)" offset="0.75"/><stop stop-opacity="1" stop-color="rgb(99.42627%, 79.830933%, 30.024719%)" offset="0.753906"/><stop stop-opacity="1" stop-color="rgb(99.441528%, 79.742432%, 29.734802%)" offset="0.757812"/><stop stop-opacity="1" stop-color="rgb(99.456787%, 79.652405%, 29.444885%)" offset="0.761719"/><stop stop-opacity="1" stop-color="rgb(99.472046%, 79.563904%, 29.154968%)" offset="0.765625"/><stop stop-opacity="1" stop-color="rgb(99.487305%, 79.473877%, 28.865051%)" offset="0.769531"/><stop stop-opacity="1" stop-color="rgb(99.502563%, 79.385376%, 28.575134%)" offset="0.773437"/><stop stop-opacity="1" stop-color="rgb(99.517822%, 79.295349%, 28.285217%)" offset="0.777344"/><stop stop-opacity="1" stop-color="rgb(99.533081%, 79.206848%, 27.9953%)" offset="0.78125"/><stop stop-opacity="1" stop-color="rgb(99.54834%, 79.116821%, 27.705383%)" offset="0.785156"/><stop stop-opacity="1" stop-color="rgb(99.563599%, 79.02832%, 27.415466%)" offset="0.789062"/><stop stop-opacity="1" stop-color="rgb(99.578857%, 78.938293%, 27.125549%)" offset="0.792969"/><stop stop-opacity="1" stop-color="rgb(99.595642%, 78.849792%, 26.835632%)" offset="0.796875"/><stop stop-opacity="1" stop-color="rgb(99.610901%, 78.759766%, 26.545715%)" offset="0.800781"/><stop stop-opacity="1" stop-color="rgb(99.62616%, 78.671265%, 26.255798%)" offset="0.804687"/><stop stop-opacity="1" stop-color="rgb(99.641418%, 78.581238%, 25.965881%)" offset="0.808594"/><stop stop-opacity="1" stop-color="rgb(99.656677%, 78.492737%, 25.675964%)" offset="0.8125"/><stop stop-opacity="1" stop-color="rgb(99.671936%, 78.40271%, 25.386047%)" offset="0.816406"/><stop stop-opacity="1" stop-color="rgb(99.687195%, 78.314209%, 25.09613%)" offset="0.820312"/><stop stop-opacity="1" stop-color="rgb(99.702454%, 78.224182%, 24.806213%)" offset="0.824219"/><stop stop-opacity="1" stop-color="rgb(99.717712%, 78.135681%, 24.516296%)" offset="0.828125"/><stop stop-opacity="1" stop-color="rgb(99.732971%, 78.045654%, 24.226379%)" offset="0.832031"/><stop stop-opacity="1" stop-color="rgb(99.74823%, 77.957153%, 23.936462%)" offset="0.835937"/><stop stop-opacity="1" stop-color="rgb(99.763489%, 77.867126%, 23.646545%)" offset="0.839844"/><stop stop-opacity="1" stop-color="rgb(99.778748%, 77.778625%, 23.356628%)" offset="0.84375"/><stop stop-opacity="1" stop-color="rgb(99.794006%, 77.688599%, 23.066711%)" offset="0.847656"/><stop stop-opacity="1" stop-color="rgb(99.809265%, 77.600098%, 22.776794%)" offset="0.851563"/><stop stop-opacity="1" stop-color="rgb(99.824524%, 77.510071%, 22.486877%)" offset="0.855469"/><stop stop-opacity="1" stop-color="rgb(99.841309%, 77.42157%, 22.19696%)" offset="0.859375"/><stop stop-opacity="1" stop-color="rgb(99.856567%, 77.331543%, 21.907043%)" offset="0.863281"/><stop stop-opacity="1" stop-color="rgb(99.871826%, 77.243042%, 21.617126%)" offset="0.867188"/><stop stop-opacity="1" stop-color="rgb(99.887085%, 77.153015%, 21.327209%)" offset="0.871094"/><stop stop-opacity="1" stop-color="rgb(99.902344%, 77.064514%, 21.037292%)" offset="0.875"/><stop stop-opacity="1" stop-color="rgb(99.917603%, 76.974487%, 20.747375%)" offset="0.878906"/><stop stop-opacity="1" stop-color="rgb(99.932861%, 76.885986%, 20.457458%)" offset="0.882812"/><stop stop-opacity="1" stop-color="rgb(99.94812%, 76.795959%, 20.167542%)" offset="0.886719"/><stop stop-opacity="1" stop-color="rgb(99.963379%, 76.707458%, 19.877625%)" offset="0.890625"/><stop stop-opacity="1" stop-color="rgb(99.978638%, 76.617432%, 19.586182%)" offset="0.894531"/><stop stop-opacity="1" stop-color="rgb(99.993896%, 76.528931%, 19.296265%)" offset="0.898438"/><stop stop-opacity="1" stop-color="rgb(99.996948%, 76.513672%, 19.247437%)" offset="0.90625"/><stop stop-opacity="1" stop-color="rgb(100%, 76.499939%, 19.198608%)" offset="0.9375"/><stop stop-opacity="1" stop-color="rgb(100%, 76.499939%, 19.198608%)" offset="1"/></linearGradient></defs><g fill="#ffffff" fill-opacity="1"><g transform="translate(172.609545, 332.055976)"><g><path d="M 4.164062 0 L 47.171875 0 C 62.726562 0 76.242188 -9.519531 76.242188 -29.75 C 76.242188 -49.980469 62.726562 -59.5 47.171875 -59.5 L 4.164062 -59.5 Z M 17.59375 -11.304688 L 17.59375 -48.195312 L 41.5625 -48.195312 C 54.992188 -48.195312 62.8125 -45.132812 62.8125 -29.75 C 62.8125 -14.363281 54.992188 -11.304688 41.5625 -11.304688 Z M 17.59375 -11.304688 "/></g></g></g><g fill="#ffffff" fill-opacity="1"><g transform="translate(320.16514, 332.055976)"><g><path d="M 4.164062 0 L 17.59375 0 L 17.59375 -59.5 L 4.164062 -59.5 Z M 4.164062 0 "/></g></g></g><g fill="#ffffff" fill-opacity="1"><g transform="translate(409.923364, 332.055976)"><g><path d="M 35.613281 0 L 53.207031 0 L 85.421875 -59.5 L 70.207031 -59.5 L 44.367188 -11.050781 L 18.53125 -59.5 L 3.316406 -59.5 Z M 35.613281 0 "/></g></g></g><g fill="#ffffff" fill-opacity="1"><g transform="translate(566.658568, 332.055976)"><g><path d="M 4.164062 0 L 67.0625 0 L 67.0625 -10.792969 L 17.59375 -10.792969 L 17.59375 -24.648438 L 67.0625 -24.648438 L 67.0625 -34.847656 L 17.59375 -34.847656 L 17.59375 -48.703125 L 67.0625 -48.703125 L 67.0625 -59.5 L 4.164062 -59.5 Z M 4.164062 0 "/></g></g></g><g fill="#ffffff" fill-opacity="1"><g transform="translate(705.034606, 332.055976)"><g><path d="M 4.164062 0 L 17.59375 0 L 17.59375 -16.40625 L 45.386719 -16.40625 L 55.417969 0 L 71.226562 0 L 60.09375 -18.019531 C 68.507812 -20.910156 73.691406 -27.964844 73.691406 -37.992188 C 73.691406 -51.253906 64.429688 -59.5 50.914062 -59.5 L 4.164062 -59.5 Z M 17.59375 -27.710938 L 17.59375 -48.195312 L 46.664062 -48.195312 C 51.933594 -48.195312 60.261719 -48.195312 60.261719 -37.992188 C 60.261719 -27.710938 51.933594 -27.710938 46.664062 -27.710938 Z M 17.59375 -27.710938 "/></g></g></g><g fill="#ffffff" fill-opacity="1"><g transform="translate(850.040299, 332.055976)"><g><path d="M 42.582031 0.851562 C 63.832031 0.851562 79.300781 -2.039062 79.300781 -17.847656 C 79.300781 -32.808594 64.769531 -34 41.308594 -35.359375 C 22.863281 -36.464844 18.871094 -37.652344 18.871094 -42.839844 C 18.871094 -47.769531 22.863281 -49.554688 39.097656 -49.554688 C 56.351562 -49.554688 63.324219 -47.597656 63.324219 -40.117188 L 76.753906 -40.117188 C 76.753906 -54.738281 63.066406 -60.347656 40.796875 -60.347656 C 18.871094 -60.347656 5.441406 -56.609375 5.441406 -43.519531 C 5.441406 -30.257812 15.722656 -26.265625 41.308594 -24.988281 C 62.046875 -23.882812 65.875 -23.035156 65.875 -17.339844 C 65.875 -12.070312 60.179688 -9.945312 43.433594 -9.945312 C 22.609375 -9.945312 16.746094 -13.175781 16.746094 -20.398438 L 3.316406 -20.398438 C 3.316406 -3.316406 18.191406 0.851562 42.582031 0.851562 Z M 42.582031 0.851562 "/></g></g></g><g fill="#ffffff" fill-opacity="1"><g transform="translate(1000.655796, 332.055976)"><g><path d="M 4.164062 0 L 17.59375 0 L 17.59375 -59.5 L 4.164062 -59.5 Z M 4.164062 0 "/></g></g></g><g fill="#ffffff" fill-opacity="1"><g transform="translate(1090.413997, 332.055976)"><g><path d="M 33.148438 0 L 46.578125 0 L 46.578125 -48.195312 L 76.414062 -48.195312 L 76.414062 -59.5 L 3.316406 -59.5 L 3.316406 -48.195312 L 33.148438 -48.195312 Z M 33.148438 0 "/></g></g></g><g fill="#ffffff" fill-opacity="1"><g transform="translate(1238.139542, 332.055976)"><g><path d="M 37.910156 0 L 51.339844 0 L 51.339844 -19.550781 L 85.933594 -59.5 L 69.441406 -59.5 L 44.625 -30.9375 L 19.890625 -59.5 L 3.316406 -59.5 L 37.910156 -19.550781 Z M 37.910156 0 "/></g></g></g><g fill="#ffffff" fill-opacity="1"><g transform="translate(172.727465, 1221.527563)"><g><path d="M 4.164062 0 L 17.59375 0 L 17.59375 -59.5 L 4.164062 -59.5 Z M 4.164062 0 "/></g></g></g><g fill="#ffffff" fill-opacity="1"><g transform="translate(262.487475, 1221.527563)"><g><path d="M 4.164062 0 L 17.59375 0 L 17.59375 -45.730469 L 62.304688 0 L 80.832031 0 L 80.832031 -59.5 L 67.402344 -59.5 L 67.402344 -13.769531 L 22.78125 -59.5 L 4.164062 -59.5 Z M 4.164062 0 "/></g></g></g><g fill="#ffffff" fill-opacity="1"><g transform="translate(415.484627, 1221.527563)"><g><path d="M 40.714844 0.851562 C 64.429688 0.851562 76.15625 -8.5 77.859375 -25.160156 L 64.257812 -25.160156 C 62.726562 -14.535156 54.3125 -10.453125 40.714844 -10.453125 C 24.648438 -10.453125 16.746094 -16.066406 16.746094 -29.835938 C 16.746094 -43.519531 24.5625 -49.042969 40.714844 -49.042969 C 54.398438 -49.042969 62.726562 -45.046875 64.257812 -34.507812 L 77.773438 -34.507812 C 76.15625 -51.082031 64.429688 -60.347656 40.714844 -60.347656 C 14.535156 -60.347656 3.316406 -49.214844 3.316406 -29.835938 C 3.316406 -10.371094 14.535156 0.851562 40.714844 0.851562 Z M 40.714844 0.851562 "/></g></g></g><g fill="#ffffff" fill-opacity="1"><g transform="translate(564.656951, 1221.527563)"><g><path d="M 4.164062 0 L 65.363281 0 L 65.363281 -11.304688 L 17.59375 -11.304688 L 17.59375 -59.5 L 4.164062 -59.5 Z M 4.164062 0 "/></g></g></g><g fill="#ffffff" fill-opacity="1"><g transform="translate(701.334824, 1221.527563)"><g><path d="M 41.5625 0.851562 C 67.65625 0.851562 78.960938 -9.179688 78.960938 -29.835938 L 78.960938 -59.5 L 65.53125 -59.5 L 65.53125 -29.835938 C 65.53125 -21.078125 63.238281 -10.453125 41.5625 -10.453125 C 19.890625 -10.453125 17.59375 -20.996094 17.59375 -29.835938 L 17.59375 -59.5 L 4.164062 -59.5 L 4.164062 -29.835938 C 4.164062 -9.09375 15.382812 0.851562 41.5625 0.851562 Z M 41.5625 0.851562 "/></g></g></g><g fill="#ffffff" fill-opacity="1"><g transform="translate(852.462054, 1221.527563)"><g><path d="M 42.582031 0.851562 C 63.832031 0.851562 79.300781 -2.039062 79.300781 -17.847656 C 79.300781 -32.808594 64.769531 -34 41.308594 -35.359375 C 22.863281 -36.464844 18.871094 -37.652344 18.871094 -42.839844 C 18.871094 -47.769531 22.863281 -49.554688 39.097656 -49.554688 C 56.351562 -49.554688 63.324219 -47.597656 63.324219 -40.117188 L 76.753906 -40.117188 C 76.753906 -54.738281 63.066406 -60.347656 40.796875 -60.347656 C 18.871094 -60.347656 5.441406 -56.609375 5.441406 -43.519531 C 5.441406 -30.257812 15.722656 -26.265625 41.308594 -24.988281 C 62.046875 -23.882812 65.875 -23.035156 65.875 -17.339844 C 65.875 -12.070312 60.179688 -9.945312 43.433594 -9.945312 C 22.609375 -9.945312 16.746094 -13.175781 16.746094 -20.398438 L 3.316406 -20.398438 C 3.316406 -3.316406 18.191406 0.851562 42.582031 0.851562 Z M 42.582031 0.851562 "/></g></g></g><g fill="#ffffff" fill-opacity="1"><g transform="translate(1003.079291, 1221.527563)"><g><path d="M 4.164062 0 L 17.59375 0 L 17.59375 -59.5 L 4.164062 -59.5 Z M 4.164062 0 "/></g></g></g><g fill="#ffffff" fill-opacity="1"><g transform="translate(1092.839324, 1221.527563)"><g><path d="M 40.714844 0.851562 C 66.808594 0.851562 78.113281 -10.453125 78.113281 -29.835938 C 78.113281 -49.128906 66.808594 -60.347656 40.714844 -60.347656 C 14.535156 -60.347656 3.316406 -49.214844 3.316406 -29.835938 C 3.316406 -10.371094 14.535156 0.851562 40.714844 0.851562 Z M 40.714844 -10.453125 C 23.96875 -10.453125 16.746094 -16.066406 16.746094 -29.835938 C 16.746094 -43.519531 23.882812 -49.042969 40.714844 -49.042969 C 57.542969 -49.042969 64.683594 -43.433594 64.683594 -29.835938 C 64.683594 -16.148438 57.457031 -10.453125 40.714844 -10.453125 Z M 40.714844 -10.453125 "/></g></g></g><g fill="#ffffff" fill-opacity="1"><g transform="translate(1242.266648, 1221.527563)"><g><path d="M 4.164062 0 L 17.59375 0 L 17.59375 -45.730469 L 62.304688 0 L 80.832031 0 L 80.832031 -59.5 L 67.402344 -59.5 L 67.402344 -13.769531 L 22.78125 -59.5 L 4.164062 -59.5 Z M 4.164062 0 "/></g></g></g><g fill="#ffffff" fill-opacity="1"><g transform="translate(104.519556, 940.529659)"><g><path d="M 50.851562 -14.691406 C 50.851562 -5.648438 54.242188 0 63.28125 0 L 215.835938 0 C 353.136719 0 427.71875 -61.023438 427.71875 -198.320312 C 427.71875 -335.621094 353.136719 -395.515625 215.835938 -395.515625 L 63.28125 -395.515625 C 54.242188 -395.515625 50.851562 -389.863281 50.851562 -380.824219 Z M 153.121094 -387.605469 L 197.757812 -387.605469 C 263.300781 -387.605469 320.367188 -291.550781 320.367188 -198.320312 C 320.367188 -105.09375 263.300781 -7.910156 197.757812 -7.910156 L 153.121094 -7.910156 Z M 153.121094 -387.605469 "/></g></g></g><g clip-path="url(#c29372ee3c)"><g clip-path="url(#717e16f475)"><path fill="url(#c78a19cbea)" d="M 481.640625 456.25 L 481.640625 907.605469 L 938.652344 907.605469 L 938.652344 456.25 Z M 481.640625 456.25 " fill-rule="nonzero"/></g></g><g clip-path="url(#ce9bc440fe)"><g clip-path="url(#6b96e181e1)"><path fill="url(#ba6d5aa0a8)" d="M 624.621094 601.769531 L 624.621094 1053.125 L 1081.636719 1053.125 L 1081.636719 601.769531 Z M 624.621094 601.769531 " fill-rule="nonzero"/></g></g><g fill="#ffffff" fill-opacity="1"><g transform="translate(1069.466244, 945.029659)"><g><path d="M 61.585938 -311.890625 C 52.546875 -311.890625 49.15625 -306.242188 49.15625 -297.199219 L 49.15625 -14.691406 C 49.15625 -5.648438 52.546875 0 61.585938 0 L 133.34375 0 C 142.386719 0 145.773438 -5.648438 145.773438 -14.691406 L 145.773438 -297.199219 C 145.773438 -306.242188 142.386719 -311.890625 133.34375 -311.890625 Z M 45.203125 -394.382812 C 45.203125 -365.566406 68.367188 -342.402344 97.183594 -342.402344 C 126 -342.402344 149.164062 -365.566406 149.164062 -394.382812 C 149.164062 -423.199219 126 -446.367188 97.183594 -446.367188 C 68.367188 -446.367188 45.203125 -423.199219 45.203125 -394.382812 Z M 45.203125 -394.382812 "/></g></g></g><g fill="#ffffff" fill-opacity="1"><g transform="translate(674.165721, 868.752385)"><g><path d="M 220.839844 -45.613281 C 235.277344 -58.738281 248.074219 -74.160156 258.246094 -90.566406 L 217.886719 -126.003906 C 208.039062 -108.941406 195.570312 -93.519531 182.117188 -81.050781 L 147.664062 -112.550781 C 189.007812 -124.035156 207.054688 -142.414062 207.054688 -172.273438 C 207.054688 -219.199219 166.695312 -241.183594 122.722656 -241.183594 C 73.832031 -241.183594 37.734375 -213.289062 37.734375 -169.976562 C 37.734375 -155.539062 42.65625 -141.429688 50.535156 -128.960938 C 18.703125 -114.847656 4.921875 -95.816406 4.921875 -65.628906 C 4.921875 -18.375 42.988281 4.921875 100.082031 4.921875 C 125.019531 4.921875 151.929688 0 177.195312 -14.109375 L 191.960938 0 L 270.714844 0 Z M 125.347656 -191.960938 C 139.132812 -191.960938 148.648438 -183.757812 148.648438 -170.960938 C 148.648438 -158.820312 137.820312 -150.945312 112.878906 -145.367188 C 106.316406 -153.242188 103.363281 -161.117188 103.363281 -168.992188 C 103.363281 -182.445312 111.894531 -191.960938 125.347656 -191.960938 Z M 107.957031 -44.300781 C 88.269531 -44.300781 74.488281 -55.128906 74.488281 -69.566406 C 74.488281 -81.707031 79.410156 -88.269531 90.566406 -91.878906 L 137.820312 -50.863281 C 127.316406 -46.597656 117.144531 -44.300781 107.957031 -44.300781 Z M 107.957031 -44.300781 "/></g></g></g></svg>