<svg xmlns="http://www.w3.org/2000/svg" xmlns:xlink="http://www.w3.org/1999/xlink" width="2000" zoomAndPan="magnify" viewBox="0 0 1500 1499.999933" height="2000" preserveAspectRatio="xMidYMid meet" version="1.0"><defs><clipPath id="15c1fe956c"><path d="M 34.996094 58 L 1082 58 L 1082 1107 L 34.996094 1107 Z M 34.996094 58 " clip-rule="nonzero"/></clipPath><clipPath id="8c4e59a22a"><path d="M 735.28125 58.195312 C 377.144531 58.195312 399.507812 213.503906 399.507812 213.503906 L 399.90625 374.402344 L 741.667969 374.402344 L 741.667969 422.714844 L 264.160156 422.714844 C 264.160156 422.714844 34.988281 396.722656 34.988281 758.085938 C 34.988281 1119.449219 235.015625 1106.632812 235.015625 1106.632812 L 354.390625 1106.632812 L 354.390625 938.949219 C 354.390625 938.949219 347.957031 738.921875 551.222656 738.921875 C 754.488281 738.921875 890.191406 738.921875 890.191406 738.921875 C 890.191406 738.921875 1080.632812 742 1080.632812 554.867188 C 1080.632812 367.730469 1080.632812 245.445312 1080.632812 245.445312 C 1080.632812 245.445312 1109.546875 58.195312 735.28125 58.195312 Z M 546.832031 166.394531 C 580.835938 166.394531 608.316406 193.875 608.316406 227.878906 C 608.316406 261.878906 580.835938 289.363281 546.832031 289.363281 C 512.828125 289.363281 485.347656 261.878906 485.347656 227.878906 C 485.347656 193.875 512.828125 166.394531 546.832031 166.394531 Z M 546.832031 166.394531 " clip-rule="nonzero"/></clipPath><clipPath id="b72c92b23d"><path d="M 399 413 L 1445.746094 413 L 1445.746094 1462 L 399 1462 Z M 399 413 " clip-rule="nonzero"/></clipPath><clipPath id="23ba890b16"><path d="M 745.449219 1461.601562 C 1103.585938 1461.601562 1081.222656 1306.289062 1081.222656 1306.289062 L 1080.824219 1145.390625 L 739.0625 1145.390625 L 739.0625 1097.082031 L 1216.570312 1097.082031 C 1216.570312 1097.082031 1445.742188 1123.070312 1445.742188 761.710938 C 1445.742188 400.347656 1245.714844 413.160156 1245.714844 413.160156 L 1126.335938 413.160156 L 1126.335938 580.847656 C 1126.335938 580.847656 1132.773438 780.875 929.507812 780.875 C 726.238281 780.875 590.539062 780.875 590.539062 780.875 C 590.539062 780.875 400.097656 777.792969 400.097656 964.929688 C 400.097656 1152.0625 400.097656 1274.351562 400.097656 1274.351562 C 400.097656 1274.351562 371.183594 1461.601562 745.449219 1461.601562 Z M 933.898438 1353.402344 C 899.894531 1353.402344 872.414062 1325.921875 872.414062 1291.917969 C 872.414062 1257.914062 899.894531 1230.433594 933.898438 1230.433594 C 967.902344 1230.433594 995.382812 1257.914062 995.382812 1291.917969 C 995.382812 1325.921875 967.902344 1353.402344 933.898438 1353.402344 Z M 933.898438 1353.402344 " clip-rule="nonzero"/></clipPath></defs><g clip-path="url(#15c1fe956c)"><g clip-path="url(#8c4e59a22a)"><path fill="#ff1791" d="M 34.996094 58.195312 L 34.996094 1119.449219 L 1109.546875 1119.449219 L 1109.546875 58.195312 Z M 34.996094 58.195312 " fill-opacity="1" fill-rule="nonzero"/></g></g><g clip-path="url(#b72c92b23d)"><g clip-path="url(#23ba890b16)"><path fill="#ff1791" d="M 371.183594 400.347656 L 371.183594 1461.601562 L 1445.742188 1461.601562 L 1445.742188 400.347656 Z M 371.183594 400.347656 " fill-opacity="1" fill-rule="nonzero"/></g></g></svg>